<svg xmlns="http://www.w3.org/2000/svg" xmlns:xlink="http://www.w3.org/1999/xlink" id="a" viewBox="0 0 999 45"><defs><clipPath id="d"><rect x="343.93" y="15.52" width="45.07" height="27.48" fill="none" stroke-width="0"></rect></clipPath><clipPath id="l"><rect x="194.95" y="12.52" width="77.05" height="30.8" fill="none" stroke-width="0"></rect></clipPath><clipPath id="y"><rect x="460.05" y="10.42" width="59.68" height="29" fill="none" stroke-width="0"></rect></clipPath><clipPath id="as"><rect x="1.99" y="4.67" width="117.01" height="32.33" fill="none" stroke-width="0"></rect></clipPath><clipPath id="aw"><rect x="591.99" y="20" width="94.7" height="17.22" fill="none" stroke-width="0"></rect></clipPath></defs><rect id="b" x="0" width="999" height="45" fill="#0a2133" stroke-width="0"></rect><g id="c"><g clip-path="url(#d)"><g id="e"><path id="f" d="m363.08,27.32c.08-.25.08-.51.17-.76.67-2.87,1.44-5.82,2.02-8.68.08-.34.17-.76.25-1.1,0-.08,0-.17.08-.17.07-.31.36-.52.68-.51h1.68c.31,0,.59.21.67.51.1.27.15.55.17.84.59,2.44,1.1,4.89,1.69,7.25.16.89.38,1.76.67,2.61v.08c0-.08.08-.17.08-.25.84-3.46,1.77-6.83,2.61-10.28.02-.13.08-.24.17-.34.08-.25.25-.34.59-.34h1.69c.25,0,.34.08.34.34,0,.2-.02.4-.08.59-.84,2.78-1.77,5.56-2.61,8.43-.34,1.35-.84,2.7-1.18,4.05,0,.08-.08.08-.08.17-.07.36-.4.61-.76.59h-1.6c-.51,0-.67-.17-.76-.59-.14-.53-.26-1.06-.34-1.6-.67-2.7-1.35-5.31-1.94-8.01-.08-.17-.08-.51-.17-.67v-.08c-.08.17-.08.51-.17.67-.76,3.2-1.52,6.32-2.28,9.52,0,.08-.08.17-.08.25-.07.31-.35.53-.67.51h-1.69c-.31,0-.59-.21-.67-.51-.08-.25-.17-.67-.25-.93-1.18-3.79-2.36-7.75-3.54-11.55-.08-.19-.1-.39-.08-.59v-.17c0-.17.17-.25.34-.25h1.77c.24,0,.46.13.59.34.08.25.17.67.25.93.76,3.2,1.6,6.41,2.44,9.69" fill="#fff" stroke-width="0"></path><path id="g" d="m366.45,43h-1.44c-.51,0-1.01-.08-1.52-.08-.48-.01-.96-.07-1.43-.17-1.06-.08-2.1-.28-3.12-.59-1.37-.3-2.72-.7-4.05-1.18-2.71-1.03-5.29-2.39-7.67-4.04-1.1-.76-2.11-1.6-3.12-2.44-.08-.08-.17-.17-.17-.25-.08-.25.17-.51.51-.51.17,0,.25.08.51.17,1.17.68,2.38,1.3,3.62,1.85,1.52.67,2.95,1.18,4.47,1.77,1.54.5,3.12.9,4.72,1.18.82.12,1.64.29,2.44.51.53.09,1.06.15,1.6.17.51.08,1.01.08,1.52.17.34,0,.76.08,1.01.08.45-.01.9.01,1.35.08h1.85c.51.01,1.01-.01,1.52-.08.51,0,.84-.08,1.35-.08.67-.1,1.35-.15,2.02-.17,1-.09,1.98-.26,2.95-.51,1.18-.25,2.53-.59,3.71-.93.87-.27,1.74-.55,2.6-.85.43-.15.86-.31,1.29-.48.31-.16.64-.29.98-.39.29-.06.6.03.8.26.25.35-.13.77-.38,1-.65.55-1.36,1.02-2.12,1.41-.82.47-1.65.89-2.5,1.29-.03.01-.05.03-.08.04-1.77.78-3.6,1.4-5.48,1.85-.93.17-1.77.34-2.7.59-.53.1-1.06.15-1.6.17-.39.07-.78.1-1.18.08-.76.07-1.52.1-2.28.08" fill="#fff" stroke-width="0"></path><path id="h" d="m353.55,28.33l-.25.25c-.89.96-2.08,1.58-3.37,1.77-.9.11-1.82.06-2.7-.17-1.25-.41-2.2-1.43-2.53-2.7-.24-1.03-.18-2.12.17-3.12.33-.89,1-1.62,1.86-2.02.64-.33,1.32-.55,2.02-.67.87-.1,1.75-.07,2.61.08.6.07,1.19.18,1.77.34h.08v-1.68c0-.41-.09-.81-.25-1.18-.25-.64-.78-1.14-1.43-1.35-.62-.22-1.29-.28-1.94-.17-1.13.04-2.25.3-3.29.76-.18.11-.38.16-.59.17-.25.08-.34,0-.51-.25v-1.18c.01-.2.1-.38.25-.51.21-.15.43-.26.67-.34.85-.33,1.72-.58,2.61-.76.78-.07,1.57-.1,2.36-.08.73.04,1.44.21,2.11.51,1.03.44,1.78,1.35,2.02,2.44.17.55.25,1.11.25,1.69v5.48c0,.34.08.76.08,1.1.12.56.32,1.1.59,1.6,0,.08.08.17.08.25,0,.17,0,.25-.08.34l-.17.17c-.34.17-.67.51-1.01.67-.26.18-.62.15-.84-.08l-.08-.08c-.38-.43-.69-.92-.93-1.44.51.34.51.25.42.17m-.08-3.62v-.51q0-.08-.08-.08c-.92-.19-1.85-.31-2.78-.34-.57-.04-1.15.05-1.69.25-.67.24-1.19.77-1.44,1.43-.07.45-.1.9-.08,1.35.07.84.69,1.53,1.52,1.69.59.08,1.18.08,1.77,0,.65-.07,1.25-.37,1.69-.84.5-.36.84-.91.93-1.52.13-.47.19-.95.17-1.44" fill="#fff" stroke-width="0"></path><path id="i" d="m382.71,30.61c-1.36,0-2.7-.25-3.96-.76-.19-.1-.39-.18-.59-.25-.24-.14-.37-.4-.34-.67v-1.01c0-.25.17-.51.51-.34.23.07.45.15.67.25.79.31,1.61.54,2.44.67.59.08,1.18.08,1.77,0,.61-.03,1.19-.23,1.69-.59.62-.47.88-1.27.67-2.02-.14-.35-.41-.62-.76-.76-.51-.25-.93-.34-1.44-.59l-2.53-.76c-.67-.18-1.27-.53-1.77-1.01-.64-.62-1.03-1.47-1.1-2.36-.08-1.35.52-2.65,1.61-3.45.72-.53,1.56-.87,2.44-1.01.98-.14,1.98-.11,2.95.08.58.09,1.15.26,1.69.51.16.1.33.19.51.25.18.17.28.42.25.67v.93c0,.34-.17.51-.59.34-.17-.08-.51-.17-.67-.25-.73-.29-1.5-.46-2.28-.51-.59-.01-1.18.01-1.77.08-.26.05-.52.13-.76.25-.48.2-.81.66-.84,1.18-.13.62.14,1.26.67,1.6.19.1.39.18.59.25.53.27,1.1.47,1.69.59.67.17,1.44.51,2.02.67.55.2,1.06.48,1.52.84.61.56,1.03,1.3,1.18,2.11.1.83-.01,1.67-.34,2.44-.45.85-1.16,1.52-2.02,1.94-.74.35-1.54.58-2.36.67h-.76" fill="#fff" stroke-width="0"></path><path id="j" d="m384.56,34.61c-1.16,0-2.31.08-3.46.22-.11.02-.21.01-.32-.03-.18-.09-.13-.29-.01-.41.27-.24.58-.43.91-.58.33-.18.68-.32,1.04-.42.58-.15,1.17-.27,1.77-.34.59-.07,1.18-.1,1.77-.08.54,0,1.07.05,1.6.15.42.04.79.28,1,.65.14.35.19.74.13,1.11-.06.69-.19,1.38-.4,2.05-.39,1.55-1.22,2.96-2.4,4.05-.17.14-.68.46-.68,0,0-.17.08-.25.17-.51.26-.78.6-1.53.84-2.32.13-.45.24-.9.32-1.37.04-.24.07-.47.1-.71.05-.22.05-.44,0-.66-.07-.33-.34-.59-.68-.64-.32-.07-.64-.11-.96-.13-.25-.02-.49-.03-.74-.03" fill="#fff" stroke-width="0"></path></g></g></g><g id="k"><g clip-path="url(#l)"><g id="m"><path id="n" d="m195.03,27.89c1.31,3.24,4.09,4.71,7.26,5.56,2.5.62,5.09.78,7.64.46,3.7-.34,7.33-1.28,10.73-2.78,1.33-.58,2.58-1.33,3.71-2.24.57-.45,1.02-1.04,1.31-1.7.1,1.16.03,2.34-.23,3.47-.22,1.16-.85,2.2-1.78,2.93-.8.68-1.71,1.2-2.7,1.54-1.74.67-3.56,1.11-5.41,1.31-2.1.23-4.22.31-6.33.23-3.63-.05-7.2-.95-10.42-2.62-.84-.47-1.64-1.01-2.39-1.62-.89-.71-1.4-1.79-1.39-2.93.01-.18-.01-.37-.08-.54.06-.36.09-.72.08-1.08" fill="#fff" stroke-width="0"></path><path id="o" d="m211.55,12.52c.6.07,1.19.17,1.78.31,1.85.34,3.61,1.04,5.17,2.08.77.54.85,1,.15,1.7-.66.54-1.42.93-2.24,1.16-2.63.77-5.37,1.08-8.1.92-1.57-.03-3.13-.29-4.63-.77-.57-.19-1.11-.45-1.62-.77-.24-.17-.45-.37-.62-.62-.18-.33-.12-.74.15-1,.28-.27.59-.51.93-.7,1.98-1.22,4.24-1.94,6.56-2.09.08.01.17-.02.23-.08.74-.13,1.49-.18,2.24-.15" fill="#fff" stroke-width="0"></path><path id="p" d="m272,24.34c-.2.09-.4.14-.62.15h-2.93c-.31,0-.39.08-.39.39v9.81q0,.7-.7.7h-1.08c-.46,0-.54-.08-.54-.54v-9.8c0-.39-.08-.46-.54-.46h-2.93c-.46,0-.54-.08-.54-.54v-1.16c-.03-.22.12-.43.35-.46.04,0,.08,0,.12,0h9.26c.16.02.32.07.46.15.07.59.09,1.18.08,1.78" fill="#fff" stroke-width="0"></path><path id="q" d="m209,43.25c-.54-.15-1.08-.15-1.62-.31-2.19-.44-4.27-1.33-6.1-2.63,6.41,2.39,12.66,2.39,18.84-.62-.8.65-1.66,1.25-2.55,1.78-1.8.96-3.76,1.56-5.79,1.78-.08,0-.15,0-.15.08-.93-.08-1.77-.08-2.62-.08" fill="#fff" stroke-width="0"></path><path id="r" d="m196.42,21.48c-.28,1.31.27,2.66,1.39,3.4,1.41,1.09,3.04,1.86,4.78,2.24,2.58.59,5.25.72,7.87.39,2.98-.34,5.91-1.04,8.72-2.08,1.23-.42,2.38-1.04,3.4-1.85.65-.48,1.14-1.16,1.39-1.93.07-.17.09-.36.08-.54.46.94.82,1.92,1.08,2.93.12.51.12,1.04,0,1.54-.19.82-.65,1.56-1.31,2.08-1.27.94-2.71,1.63-4.25,2.01-2.76.64-5.59.9-8.41.78-3.34,0-6.67-.46-9.88-1.39-1.67-.49-3.24-1.27-4.63-2.31-.46-.36-.86-.81-1.16-1.31-.17-.31-.22-.66-.15-1,.28-1.01.64-1.99,1.08-2.94" fill="#fff" stroke-width="0"></path><path id="s" d="m200.2,16.38c-.29.57-.4,1.22-.31,1.85.14.8.62,1.5,1.31,1.93.91.59,1.94.95,3.01,1.08,4.5.6,9.08.02,13.28-1.7.84-.34,1.62-.81,2.32-1.39.34-.29.61-.66.77-1.08.08-.15,0-.39,0-.62.78.69,1.47,1.47,2.08,2.32.52.78.49,1.8-.08,2.55-.65.87-1.53,1.54-2.55,1.93-1.46.66-3.03,1.05-4.63,1.16-3.77.36-7.58.1-11.27-.77-1.48-.34-2.91-.89-4.25-1.62-.61-.35-1.15-.79-1.62-1.31-.6-.57-.62-1.51-.05-2.11.02-.02.03-.03.05-.05.47-.6.99-1.17,1.54-1.7.08-.23.23-.31.39-.46" fill="#fff" stroke-width="0"></path><path id="t" d="m245.29,29.74v-4.94c0-.31-.08-.46-.39-.46h-2.93c-.54,0-.62-.08-.62-.62v-1c0-.46.08-.54.54-.54h9.11c.54,0,.54.08.62.62v.93c0,.62-.08.62-.69.62h-2.86c-.31,0-.46.08-.46.46v9.81c0,.54-.08.62-.62.62h-1.24c-.46,0-.54-.08-.54-.54.08-1.62.08-3.24.08-4.94" fill="#fff" stroke-width="0"></path><path id="u" d="m196.73,34.76c.38.47.82.89,1.31,1.24,1.36,1.01,2.91,1.75,4.56,2.16,2.99.81,6.11,1.04,9.19.69,2.73-.19,5.42-.82,7.95-1.85,1.54-.56,2.94-1.45,4.09-2.63.25-.24.48-.5.7-.77.08.15-.08.23-.08.39-1.11,2.71-3.38,4.78-6.18,5.63-2.44.8-5,1.2-7.57,1.16-2.56-.04-5.11-.43-7.57-1.16-1.93-.55-3.68-1.59-5.1-3.01-.45-.46-.84-.98-1.16-1.54-.15-.08-.23-.15-.15-.31" fill="#fff" stroke-width="0"></path><path id="v" d="m263.43,34.68c-.85-.85-1.62-1.78-2.47-2.63-.13-.12-.17-.31-.08-.46.54-.93,1.08-1.85,1.62-2.7.23-.46.15-.62-.39-.62h-1.23c-.33-.03-.64.16-.77.46l-.93,1.62c-.62-.7-1.24-1.31-1.85-1.93.47-.26.91-.57,1.31-.93.92-.74,1.31-1.95,1-3.09-.22-1.08-1.02-1.94-2.08-2.24-.6-.2-1.23-.26-1.85-.15-1.24.05-2.34.84-2.78,2.01-.51,1.25-.27,2.69.62,3.71.15.23.15.31-.08.39-1.98.95-2.82,3.32-1.87,5.3.18.38.42.72.71,1.03,1.14,1,2.69,1.4,4.17,1.08,1.17-.2,2.2-.87,2.86-1.85.46.46.85.93,1.24,1.39.16.22.42.34.7.31h1.85c.15,0,.39.08.46-.15.08-.31-.08-.39-.15-.54m-6.87-10.65c.43,0,.81.28.93.7.25.46.15,1.03-.23,1.39-.33.35-.72.64-1.16.85-.05.06-.14.08-.2.03-.01,0-.02-.02-.03-.03-.48-.42-.78-1-.86-1.62-.08-.85.46-1.39,1.54-1.31m1.16,8.42c-.48.68-1.26,1.08-2.08,1.08-.76.05-1.47-.38-1.78-1.08-.35-.7-.26-1.55.23-2.16l.23-.23c.85-.77.93-.77,1.7,0,.54.62,1.16,1.24,1.77,1.85.09.18.06.39-.08.54" fill="#fff" stroke-width="0"></path><path id="w" d="m242.9,34.68c-.39-1-.77-2.08-1.08-3.09-1.08-2.93-2.09-5.87-3.16-8.88-.15-.31-.31-.54-.7-.46h-2.01c-.29-.02-.56.18-.62.46-.38,1.08-.77,2.24-1.24,3.32-1,2.86-2.08,5.72-3.09,8.65-.15.46-.08.62.46.62h1.23c.29.05.57-.16.62-.45,0,0,0,0,0-.01.23-.77.54-1.62.85-2.39.06-.16.22-.25.39-.23h4.71c.17-.02.33.07.39.23.23.77.54,1.54.85,2.39.08.31.38.51.7.46h1.31c.46,0,.54-.15.39-.62m-4.48-4.63h-3.47c.62-1.78,1.24-3.55,1.85-5.4.62,1.85,1.24,3.55,1.85,5.4h-.23Z" fill="#fff" stroke-width="0"></path></g></g></g><g id="x"><g clip-path="url(#y)"><g id="z"><path id="aa" d="m498.02,39.35c-.29-.06-.59-.09-.88-.08-1.83-.28-3.38-1.49-4.09-3.2-.31-.79-.42-1.64-.32-2.48.04-1.08.44-2.12,1.12-2.96.79-.97,1.9-1.62,3.12-1.84,1.2-.24,2.45-.16,3.6.24q.08,0,.08.08v2.64c-.24-.08-.48-.24-.72-.32-.78-.27-1.61-.29-2.4-.08-1.1.29-1.88,1.27-1.92,2.4-.18,1.49.88,2.85,2.38,3.03.06,0,.12.01.19.02.83.07,1.67-.09,2.4-.48h.08v2.64c0,.08,0,.16-.08.16-.63.18-1.27.29-1.92.32h-.08c-.18-.06-.37-.09-.56-.08" fill="#fff" stroke-width="0"></path><path id="ab" d="m475.67,10.51h.16c.61.12,1.05.66,1.04,1.28v13.7c.02.71-.54,1.3-1.25,1.31s-1.3-.54-1.31-1.25c0-.02,0-.04,0-.06v-13.7c-.08-.67.4-1.28,1.07-1.35.04,0,.09,0,.13,0q.08.08.16.08" fill="#fff" stroke-width="0"></path><path id="ac" d="m504.27,10.51c.16.08.4.08.56.16.38.21.62.61.64,1.04v13.7c.03.39-.12.77-.4,1.04-.34.39-.91.49-1.36.24-.47-.18-.79-.62-.8-1.12v-13.62c-.03-.28.03-.56.16-.8.18-.37.55-.62.96-.64h.24" fill="#fff" stroke-width="0"></path><path id="ad" d="m486.24,39.34h-.88s.1-.07.16-.08h.64l.08.08Z" fill="#fff" stroke-width="0"></path><path id="ae" d="m470.54,39.34h0c.21-.06.42-.09.64-.08.04,0,.08.03.08.08,0,0,0,0,0,0h-.72Z" fill="#fff" stroke-width="0"></path><path id="af" d="m508.52,39.34h0s.03-.08.08-.08c0,0,0,0,0,0h.56s.08.03.08.08c0,0,0,0,0,0h-.72Z" fill="#fff" stroke-width="0"></path><path id="ag" d="m486.24,39.34h-.88c-.73,0-1.45-.08-2.16-.24-.08,0-.08-.08-.08-.16v-2.16q0-.08.08-.08c.53.15,1.06.25,1.6.32.61.09,1.24.07,1.84-.08l.48-.24c.33-.22.41-.67.19-1-.03-.04-.07-.08-.1-.12-.24-.21-.51-.37-.8-.48l-1.44-.48c-.59-.25-1.11-.64-1.52-1.12-.39-.59-.56-1.3-.48-2,.17-1.4,1.25-2.51,2.64-2.72.74-.15,1.5-.18,2.24-.08l1.44.24c.08,0,.08.08.08.16v1.92c0,.08,0,.16-.16.08-.68-.19-1.38-.3-2.08-.32-.36,0-.72.09-1.04.24-.36.13-.55.53-.42.9.06.17.18.31.34.39.22.14.47.25.72.32.49.12.97.28,1.44.48.8.3,1.42.95,1.68,1.77.55,1.51-.1,3.19-1.52,3.93-.62.4-1.35.6-2.08.56" fill="#fff" stroke-width="0"></path><path id="ah" d="m471.26,39.35h-.72c-1.72-.09-3.3-.94-4.33-2.32-.47-.66-.74-1.44-.8-2.24-.15-1.03-.01-2.09.4-3.04.58-1.38,1.76-2.41,3.2-2.8,1.07-.29,2.19-.35,3.28-.16.32.08.56.16.88.24.08,0,.08.08.08.16v2.72l-.48-.24c-.84-.33-1.77-.39-2.64-.16-1.27.35-2.09,1.58-1.92,2.88.07,1.24,1.01,2.25,2.24,2.4.9.14,1.83,0,2.64-.4h.08c.08-.08.16-.08.16.08v2.32q0,.4-.32.48c-.64,0-1.2.08-1.77.08" fill="#fff" stroke-width="0"></path><path id="ai" d="m476.87,33.98v-5.05q0-.16.16-.16h2.32c.08,0,.16,0,.16.16v10.09c0,.08,0,.16-.16.16h-2.32c-.08,0-.16,0-.16-.16v-5.05Z" fill="#fff" stroke-width="0"></path><path id="aj" d="m512.6,19.8v3.12c.01.6-.38,1.13-.96,1.28-.66.2-1.36-.18-1.55-.84-.04-.14-.06-.29-.05-.44v-6.17c-.06-.73.48-1.37,1.21-1.43.73-.06,1.37.48,1.43,1.21,0,.05,0,.1,0,.14-.08,1.04-.08,2.08-.08,3.12" fill="#fff" stroke-width="0"></path><path id="ak" d="m484,19.8v3.12c.01.6-.38,1.13-.96,1.28-.73.18-1.47-.27-1.65-1-.02-.07-.03-.13-.03-.2v-6.25c0-.55.31-1.04.8-1.28.65-.27,1.4.04,1.67.69.06.14.09.28.1.43.08,1.12.08,2.16.08,3.2" fill="#fff" stroke-width="0"></path><path id="al" d="m467.18,19.8v-3.12c-.01-.6.38-1.13.96-1.28.7-.2,1.43.2,1.63.9.03.1.04.2.05.3v6.33c.04.63-.41,1.19-1.04,1.28-.7.17-1.4-.27-1.57-.97-.02-.08-.03-.15-.03-.23v-3.2" fill="#fff" stroke-width="0"></path><path id="am" d="m495.7,19.8v-3.12c0-.65.48-1.2,1.12-1.28.75-.09,1.43.44,1.52,1.19,0,0,0,0,0,0v6.25c.01.6-.38,1.13-.96,1.28-.68.18-1.38-.23-1.56-.91-.03-.12-.05-.25-.04-.37-.08-.88-.08-2-.08-3.04" fill="#fff" stroke-width="0"></path><path id="an" d="m460.05,23.16v-3.05c.09-.64.64-1.12,1.28-1.12.64.03,1.17.49,1.28,1.12v2.8c0,.62-.43,1.16-1.04,1.28-.64.18-1.3-.19-1.48-.82-.02-.07-.03-.14-.04-.22" fill="#fff" stroke-width="0"></path><path id="ao" d="m519.73,20.11v3.04c-.05.63-.57,1.11-1.2,1.12-.62,0-1.16-.43-1.28-1.04v-2.96c.03-.73.63-1.3,1.36-1.28.59.07,1.05.53,1.12,1.12" fill="#fff" stroke-width="0"></path><path id="ap" d="m491.13,21.64v1.36c.03.61-.43,1.14-1.04,1.2-.75.13-1.46-.37-1.59-1.12,0-.03,0-.06-.01-.08v-2.88c.04-.71.66-1.25,1.36-1.2.65.04,1.16.56,1.2,1.2.07.5.09,1.01.08,1.52" fill="#fff" stroke-width="0"></path><path id="aq" d="m514.28,33.1c-.27-1.75-1.42-3.23-3.04-3.93-1.05-.49-2.23-.63-3.37-.4-1.04.12-2,.6-2.72,1.36-2.17,2.03-2.28,5.43-.24,7.6.96,1.02,2.29,1.63,3.69,1.69h.72c.24,0,.48-.08.72-.08,1.27-.22,2.41-.9,3.2-1.92.93-1.24,1.3-2.8,1.04-4.33m-5.45,3.6c-1.5,0-2.72-1.22-2.72-2.72s1.22-2.72,2.72-2.72,2.72,1.22,2.72,2.72c.01,1.49-1.19,2.71-2.68,2.72-.01,0-.03,0-.04,0" fill="#fff" stroke-width="0"></path></g></g></g><g id="ar"><g clip-path="url(#as)"><g id="at"><path id="au" d="m68.95,14.72l6.76-2.5-6.76-2.67v-3.51l11.52,4.67v2.92l-11.52,4.67v-3.59ZM6.41,37c-2.42,0-4.42-1.25-4.42-4v-.17c0-3.34,2.92-4.42,6.34-4.42h1.67v-.58c0-1.34-.58-2.17-2-2.17-1.01-.1-1.9.64-2,1.65,0,.03,0,.07,0,.1h-3.59c.25-3,2.67-4.42,5.84-4.42s5.59,1.42,5.59,4.76v9.01h-3.76v-1.59c-.83,1.2-2.21,1.89-3.67,1.84Zm3.59-4.76v-1.25h-1.51c-1.84,0-2.84.5-2.84,1.75v.17c0,.92.58,1.59,1.84,1.59,1.34-.17,2.5-.83,2.5-2.25m12.35,4.76c-3.76,0-6.43-2.34-6.43-6.93v-.17c0-4.59,2.92-7.01,6.51-7.01,3.09,0,5.59,1.59,5.93,5.09h-3.59c-.25-1.34-.92-2.17-2.25-2.17-1.59,0-2.67,1.25-2.67,3.92v.42c0,2.75,1,4.01,2.75,4.01,1.33-.03,2.39-1.09,2.42-2.42h3.42c-.33,3-2.42,5.26-6.09,5.26h0Zm14.02,0c-3.76,0-6.43-2.34-6.43-6.93v-.17c0-4.59,2.92-7.01,6.51-7.01,3.09,0,5.59,1.59,5.93,5.09h-3.59c-.25-1.34-.92-2.17-2.25-2.17-1.59,0-2.67,1.25-2.67,3.92v.42c0,2.75,1,4.01,2.75,4.01,1.33-.03,2.39-1.09,2.42-2.42h3.42c-.34,3-2.42,5.26-6.09,5.26h0Zm14.1,0c-3.92,0-6.59-2.34-6.59-6.84v-.25c0-4.51,2.84-7.01,6.43-7.01,3.34,0,6.18,1.92,6.18,6.34v1.59h-8.68c.17,2.42,1.17,3.34,2.84,3.34,1.15.11,2.21-.63,2.5-1.75h3.51c-.5,2.67-2.59,4.59-6.18,4.59h0Zm-2.67-8.6h5.09c-.08-2-1-2.84-2.5-2.84-1.17,0-2.26.58-2.59,2.84h0Zm11.1-5.18h3.76v2c.8-1.5,2.39-2.41,4.09-2.34,2.42,0,4.09,1.51,4.09,4.76v9.01h-3.76v-8.43c0-1.59-.67-2.25-2-2.25s-2.34.83-2.34,2.5v8.26h-3.76l-.08-13.52Zm18.95-4.09v4.09h2.59v2.84h-2.59v6.43c0,1,.5,1.51,1.34,1.51.46,0,.91-.08,1.34-.25v2.92c-.68.2-1.38.28-2.09.25-2.92,0-4.34-1.34-4.34-4.09v-6.76h-1.59v-2.84h1.58v-2.5l3.76-1.59Zm16.78,17.53h-3.76v-2c-.76,1.45-2.29,2.33-3.92,2.25-2.42,0-4.17-1.51-4.17-4.67v-9.01h3.76v8.6c0,1.59.58,2.25,1.92,2.25s2.34-.83,2.34-2.5v-8.35h3.76l.08,13.44Zm2.75-13.44h3.76v2.5c.62-1.7,2.28-2.79,4.09-2.67v3.76c-2.59,0-4.09.75-4.09,3v6.92h-3.76v-13.52Zm15.52,13.77c-3.92,0-6.59-2.34-6.59-6.84v-.25c0-4.51,2.84-7.01,6.43-7.01,3.34,0,6.18,1.92,6.18,6.34v1.59h-8.76c.17,2.42,1.17,3.34,2.84,3.34,1.15.11,2.21-.63,2.5-1.75h3.51c-.5,2.67-2.59,4.59-6.09,4.59Zm-2.67-8.6h5.09c-.08-2-1-2.84-2.5-2.84-1.25,0-2.26.58-2.59,2.84h0Z" fill="#fff" stroke-width="0"></path></g></g></g><g id="av"><g clip-path="url(#aw)"><g id="ax"><path id="ay" d="m591.99,20.15h6.43c.72,0,1.44.1,2.14.29.57.16,1.11.4,1.62.71.38.25.73.54,1.04.88.69.74,1.15,1.67,1.33,2.66.06.38.11.76.15,1.14.09.96.04,1.92.06,2.87v.34c-1.15.28-2.29.58-3.42.86v-.97c0-.3-.02-.61-.02-.92v-.66c0-.28,0-.58-.03-.86-.02-.59-.13-1.17-.33-1.72-.17-.4-.44-.75-.79-1.02-.25-.2-.53-.36-.83-.46-.29-.11-.59-.17-.9-.17l-2.9-.03h-.12v8.51c-.55.17-1.09.34-1.63.52-.59.19-1.17.4-1.75.61h-.04v-12.6Z" fill="#fff" stroke-width="0"></path><path id="az" d="m651.04,20s.09.02.13.02c.56.01,1.11.1,1.65.25.42.11.83.26,1.21.46,1.42.74,2.48,2.02,2.94,3.56.08.27.16.53.24.83-.16-.02-.31-.04-.45-.06l-.9-.14c-.31-.05-.61-.1-.93-.14-.28-.04-.57-.06-.86-.1-.16-.02-.34-.05-.51-.07-.04,0-.08-.03-.1-.06-.17-.35-.41-.67-.71-.93-.32-.28-.71-.48-1.13-.57-.35-.09-.71-.12-1.07-.09-.64.02-1.26.26-1.75.68-.15.15-.3.3-.43.47-.03.05-.09.08-.16.08-.45-.02-.9-.03-1.36-.05-.19,0-.38-.02-.57-.02l-.96-.03c-.21,0-.42-.02-.66-.04.07-.19.14-.39.22-.59.17-.41.4-.78.69-1.11.24-.28.49-.54.77-.77.31-.27.65-.51,1.01-.72.54-.32,1.13-.54,1.74-.67.44-.1.89-.16,1.34-.17.03,0,.05-.02.07-.02h.52Z" fill="#fff" stroke-width="0"></path><path id="ba" d="m672.57,20.16h3.39c.08,0,.14.02.16.1.25.79.5,1.58.74,2.36.13.41.27.84.4,1.25.26.8.5,1.6.76,2.39.14.42.27.84.41,1.26.25.77.49,1.54.74,2.32.13.4.27.81.39,1.22,0,.04.03.06.05.12.02-.04.05-.08.06-.13.17-.54.35-1.08.52-1.63l.82-2.62c.16-.5.32-.99.48-1.48.26-.8.51-1.6.76-2.39.16-.5.32-.99.48-1.48l.39-1.18c0-.06.06-.1.11-.1h0s3.42,0,3.42,0c.01,0,.02,0,.04,0-.04.12-.07.24-.12.36-.2.6-.41,1.18-.61,1.78-.33.96-.66,1.9-.98,2.86-.33.97-.67,1.95-1,2.93-.33.96-.66,1.9-.98,2.86-.34.99-.68,1.98-1.02,2.98l-.99,2.87c-.05.19-.23.31-.42.29h-2.07c-.09.02-.17-.04-.19-.13-.28-.84-.57-1.68-.85-2.52l-.77-2.26c-.27-.79-.54-1.59-.82-2.38l-.77-2.26c-.27-.77-.52-1.54-.79-2.32l-.77-2.26c-.27-.79-.54-1.59-.82-2.38-.05-.14-.09-.28-.15-.44h.02Z" fill="#fff" stroke-width="0"></path><path id="bb" d="m663.01,23.09h-4.44c-.12,0-.16-.03-.16-.15v-2.66c0-.11.04-.14.15-.14h12.28c.12,0,.16.03.16.15v2.66c0,.11-.04.13-.14.13h-4.45v13.82c0,.11-.06.16-.18.16h-3.05c-.12,0-.17-.05-.17-.16v-13.81" fill="#fff" stroke-width="0"></path><path id="bc" d="m634.17,30.01v4.14h7.97c.11,0,.17.05.17.16v2.66c0,.11-.04.14-.15.14h-11.25c-.12,0-.15-.04-.15-.15v-10.47c0-.14.06-.17.16-.18.39-.04.76-.08,1.15-.12l1.41-.17c.22-.03.44-.04.68-.05v1.14h6.77c.13,0,.16.03.16.15v2.63c0,.12-.04.15-.16.15h-6.77Z" fill="#fff" stroke-width="0"></path><path id="bd" d="m618.48,30.32v6.6c.01.08-.05.15-.12.16-.01,0-.03,0-.04,0h-3.1c-.12,0-.17-.03-.17-.15v-7.79c0-.07.04-.14.11-.15,0,0,.01,0,.02,0,.73-.16,1.44-.33,2.17-.49.72-.16,1.47-.29,2.2-.43.52-.1,1.05-.21,1.57-.3.67-.12,1.33-.23,2-.34.61-.1,1.2-.21,1.81-.3.62-.1,1.26-.19,1.89-.28.17-.03.33-.05.5-.07h.09c-.46,1.43-1.58,2.55-3.01,3.01,1.3,2.43,2.61,4.86,3.91,7.29-.05,0-.07,0-.11,0h-3.72c-.07,0-.14-.03-.17-.09-.23-.48-.48-.96-.72-1.42-.39-.78-.79-1.55-1.19-2.33-.23-.48-.49-.96-.72-1.43-.23-.46-.47-.92-.69-1.39-.04-.08-.08-.1-.17-.1h-2.34,0Z" fill="#fff" stroke-width="0"></path><path id="be" d="m657.25,31.9c-.08.3-.13.59-.21.87-.13.45-.31.89-.53,1.3-.22.41-.48.79-.79,1.13-.46.52-1.01.95-1.63,1.27-.62.32-1.28.54-1.97.64-.33.05-.66.08-.99.09-.89.06-1.78-.06-2.62-.35-.7-.23-1.34-.59-1.92-1.04-.49-.38-.93-.84-1.28-1.36-.33-.52-.57-1.09-.69-1.69-.06-.31-.12-.62-.17-.93-.03-.19-.05-.37-.06-.56-.02-.29-.02-.59-.03-.88,0-1.05-.02-2.08-.02-3.13,0-.42.03-.84.05-1.26,0-.1.02-.19.03-.29,0-.08.04-.13.14-.12.42.02.84.03,1.27.05.35.02.7.05,1.05.08.3.02.61.05.92.08.03,0,.08.04.08.06-.02.21-.04.42-.06.63v.05c0,.27-.02.54-.03.82,0,.5-.03.98-.03,1.48s0,.96.03,1.44c.02.38.04.76.08,1.14.03.45.13.89.29,1.31.11.26.27.51.47.72.23.25.51.46.82.61.33.15.68.24,1.04.27.48.05.96,0,1.42-.15.62-.2,1.15-.63,1.48-1.19.18-.29.31-.61.39-.94.03-.09.06-.1.15-.1h3.34v-.04Z" fill="#fff" stroke-width="0"></path><path id="bf" d="m627.6,24.92c-1.14.15-2.26.29-3.35.43-.06-.28-.11-.56-.19-.82-.21-.59-.69-1.06-1.28-1.25-.36-.13-.73-.19-1.11-.18h-3.16v3.01c0,.11-.06.14-.15.16-.39.08-.8.14-1.19.21-.55.09-1.1.19-1.65.28-.15.03-.29.06-.45.09,0-.04,0-.08,0-.1v-6.5c0-.09.04-.12.13-.12h6.87c.77,0,1.54.14,2.27.4.5.19.97.45,1.4.78,1.11.87,1.8,2.17,1.9,3.58v.02Z" fill="#fff" stroke-width="0"></path><path id="bg" d="m630.75,20.15h11.55v2.94h-8.12v1.22c-.14,0-.27.03-.39.04-.39.03-.77.05-1.15.08s-.75.06-1.14.09c-.25.02-.5.05-.75.08v-4.45h0Z" fill="#fff" stroke-width="0"></path><path id="bh" d="m608.05,20.16h3.41v7.42c-1.13.24-2.27.49-3.41.73v-8.14Z" fill="#fff" stroke-width="0"></path><path id="bi" d="m604.59,32.13c-.03.15-.04.27-.06.39-.12.58-.32,1.15-.6,1.67-.58,1.04-1.49,1.86-2.59,2.32-.52.22-1.07.37-1.63.45-.35.05-.71.08-1.07.09-.94.02-1.86.02-2.8.03h-2.39c3.56-1.97,7.28-3.63,11.13-4.95h.01Z" fill="#fff" stroke-width="0"></path><path id="bj" d="m611.46,29.95v6.98c0,.1-.06.16-.17.16h-3.1c-.11,0-.14-.03-.14-.13v-5.89c0-.08.04-.14.12-.16.7-.21,1.39-.42,2.07-.63.37-.11.73-.21,1.1-.32.03,0,.07,0,.1,0h0Z" fill="#fff" stroke-width="0"></path></g></g></g><path d="m777,16.9c-.04.7-.07,1.39-.12,2.08-.02.27.07.38.35.43.93.16.93.17,1.25-.72.14-.38.28-.77.42-1.15.01-.04.04-.08.11-.19.78.31,1.55.63,2.39.97-.35.74-.67,1.43-1.01,2.16.35.23.68.46,1.08.72.54-.59,1.08-1.17,1.64-1.78.6.63,1.18,1.24,1.8,1.88-.55.49-1.14,1.01-1.75,1.55.22.33.4.64.62.91.06.07.28.07.4.02.62-.28,1.23-.57,1.9-.88.33.8.66,1.57,1.01,2.38-.78.28-1.52.54-2.29.8.06.35.09.68.19.99.04.12.26.26.4.26.55,0,1.11-.03,1.65-.08.35-.03.44.11.43.43-.01.57-.01,1.14,0,1.71,0,.3-.09.43-.41.41-.54-.05-1.07-.05-1.61-.1-.31-.03-.48.06-.5.39-.02.27-.09.53-.16.86.74.26,1.49.53,2.28.82-.33.79-.65,1.56-.99,2.38-.6-.28-1.19-.54-1.75-.83-.33-.17-.54-.17-.72.19-.12.24-.29.44-.46.69.61.54,1.2,1.06,1.75,1.56-.6.62-1.18,1.22-1.8,1.86-.53-.58-1.06-1.15-1.62-1.76-.35.23-.71.46-1.09.71.35.71.68,1.41,1.05,2.16-.8.33-1.59.65-2.43.99-.24-.67-.47-1.28-.67-1.91-.09-.28-.2-.35-.51-.28-.95.22-.94.2-.86,1.15.04.49.04.98.06,1.47h-2.66c.04-.54.09-1.06.12-1.6.04-.83.03-.8-.8-1.01-.38-.09-.49.02-.59.35-.2.61-.43,1.2-.66,1.83-.84-.35-1.62-.67-2.42-.99.36-.75.7-1.43,1.04-2.15-.37-.25-.72-.48-1.09-.72-.55.6-1.08,1.18-1.6,1.75-.62-.62-1.21-1.23-1.81-1.84,0,0,0-.03.03-.05.34-.3.68-.62,1.02-.91.67-.59.66-.58.21-1.31-.2-.32-.37-.35-.68-.18-.57.3-1.16.55-1.78.85-.34-.81-.66-1.59-1-2.39.7-.25,1.33-.45,1.93-.69.12-.05.3-.22.29-.32-.03-.35-.13-.7-.21-1.06-.85.04-1.66.07-2.46.11v-2.56c.51.02,1.01.02,1.51.07.95.08.94.09,1.14-.83.07-.32-.02-.45-.33-.54-.62-.19-1.24-.43-1.9-.66.35-.83.67-1.59,1.01-2.38.49.23.94.45,1.4.66.8.37.78.35,1.3-.34.22-.3.15-.45-.1-.66-.49-.41-.97-.85-1.43-1.26.62-.63,1.22-1.23,1.83-1.85.54.58,1.06,1.16,1.61,1.76.38-.25.72-.49,1.08-.73-.35-.74-.69-1.43-1.04-2.16.83-.33,1.6-.65,2.42-.99.28.78.55,1.51.83,2.25.38-.07.7-.11,1.02-.2.1-.03.24-.2.24-.3-.03-.72-.09-1.45-.14-2.17h2.66v-.02Zm-7.05,11.68c0,3.19,2.54,5.82,5.72,5.79,3.23-.03,5.74-2.48,5.79-5.73.05-3.18-2.56-5.76-5.79-5.77-3.17,0-5.72,2.54-5.72,5.72h0Z" fill="#fff" stroke-width="0"></path><path d="m830.14,23.47h6.65v2.09h-1.38c-.77,0-1.54.01-2.31,0-.38,0-.55.11-.54.51.02.8,0,1.6,0,2.46h4.14c0,.64.03,1.24-.02,1.83,0,.12-.29.3-.45.31-1.01.03-2.03.04-3.04,0-.49-.01-.66.14-.64.64.04.97,0,1.94,0,2.96h4.27c0,.66.02,1.27-.01,1.88,0,.1-.25.27-.38.27-1.97.01-3.94,0-5.91.01-.42,0-.43-.24-.43-.55v-11.94c0-.14.02-.29.04-.46h.03Z" fill="#fff" stroke-width="0"></path><path d="m915.87,23c3.58,3.55,7.09,7.03,10.72,10.63v-10.16h1.41v13.44c-3.56-3.51-7.06-6.98-10.7-10.58v.82c0,2.91-.01,5.82.01,8.73,0,.61-.34.55-.72.54-.38,0-.78.1-.78-.55.02-4.15,0-8.3.01-12.45,0-.11.02-.21.04-.43h0Z" fill="#fff" stroke-width="0"></path><path d="m819.33,30.77c.17-.38.34-.78.5-1.16.81-1.98,1.63-3.95,2.42-5.94.17-.41.38-.57.83-.54.65.04,1.31.01,2.09.01-1.96,4.56-3.88,9.03-5.85,13.63-1.93-4.58-3.81-9.05-5.74-13.63.91,0,1.72-.02,2.54.02.12,0,.25.28.33.46.83,2.13,1.64,4.27,2.46,6.4.09.25.19.49.29.72h.14s0,.01,0,.01Z" fill="#fff" stroke-width="0"></path><path d="m902.83,36.67c-2.93-.15-5.13-1.19-6.51-3.57-1.58-2.72-.89-6.17,1.56-8.17,2.98-2.43,7.43-2.25,9.95.41,3.62,3.81,1.97,9.62-3.14,11.02-.68.19-1.4.25-1.86.33h0Zm-.22-12.18c-3.14,0-5.68,2.43-5.67,5.45,0,2.98,2.55,5.44,5.64,5.46,3.11.01,5.69-2.45,5.71-5.44.01-3.01-2.52-5.46-5.67-5.46h0Z" fill="#fff" stroke-width="0"></path><path d="m873.11,30.6c1.46,1.95,2.85,3.81,4.24,5.68-.9.37-1.64.17-2.15-.54-1.13-1.56-2.26-3.14-3.4-4.69-.13-.18-.35-.29-.67-.54-.01.4-.04.59-.04.8-.01,1.5-.06,3.01-.03,4.51.01.67-.38.58-.8.6-.48.03-.66-.12-.66-.63.01-3.93,0-7.85.01-11.77,0-.18.03-.36.04-.58,1.56.01,3.07-.13,4.56.32,1.56.48,2.42,1.64,2.39,3.33-.03,1.56-1.04,2.9-2.52,3.28-.28.07-.57.13-.98.22h0Zm-2-6v4.9c1.08-.02,2.11.01,3.04-.53.89-.52,1.03-1.38.94-2.3-.08-.84-.51-1.49-1.33-1.7-.84-.2-1.72-.25-2.65-.38h0Z" fill="#fff" stroke-width="0"></path><path d="m797.46,34.26h3.64c0,.66.01,1.27-.01,1.88,0,.09-.22.26-.33.26-1.82.01-3.64,0-5.46.01-.43,0-.34-.31-.34-.56v-12.37h2.51v10.78Z" fill="#fff" stroke-width="0"></path><path d="m863.51,35.16c.09,1.54.1,1.24-1.06,1.25-1.77.02-3.54,0-5.3.01-.49,0-.68-.1-.68-.65.02-3.9.01-7.82.01-11.72,0-.18.01-.37.03-.58h6.95c.02.05.07.1.07.14.03,1.29.1,1.06-1.01,1.07-1.3.01-2.59,0-3.89,0-.22,0-.44.02-.69.04v3.9c.27.01.51.04.75.04,1.37,0,2.75.02,4.11,0,.57-.01.57.3.58.72.02.46-.17.57-.59.56-1.45-.02-2.89,0-4.34-.01-.42,0-.56.12-.55.54.02,1.39.02,2.78,0,4.17,0,.43.16.54.57.53,1.46-.02,2.93,0,4.4,0h.64,0Z" fill="#fff" stroke-width="0"></path><path d="m890.16,25.22c-.39.23-.76.45-1.16.68-.65-1.09-1.6-1.54-2.82-1.36-.72.1-1.3.46-1.67,1.12-.43.78-.3,1.65.43,2.15.62.42,1.31.71,1.98,1.04.57.28,1.17.51,1.74.8,2.95,1.45,2.27,4.85.35,6.19-2.38,1.67-5.8.72-6.73-1.89-.15-.43-.11-.64.38-.75.77-.17.76-.21,1.06.51.57,1.31,2.04,1.98,3.47,1.58,1.35-.38,2.16-1.53,1.99-2.81-.09-.74-.54-1.25-1.14-1.59-.63-.36-1.32-.62-1.97-.95-.67-.33-1.38-.62-1.98-1.04-1.51-1.05-1.69-3.13-.41-4.47,1.76-1.86,5.11-1.49,6.47.8h0Z" fill="#fff" stroke-width="0"></path><path d="m845.27,30.73c0,1.73-.02,3.38.01,5.03.01.55-.16.71-.7.69-.49-.02-.8-.04-.79-.68.03-3.9.02-7.81,0-11.71,0-.46.12-.64.6-.61,1.3.09,2.64.04,3.92.25,1.59.27,2.59,1.64,2.63,3.27.04,1.67-.85,3.01-2.43,3.43-.75.2-1.55.22-2.33.31-.28.03-.56,0-.92,0h0Zm.04-1.19c.99-.12,1.91-.16,2.79-.37.81-.19,1.3-.8,1.41-1.65.1-.86.05-1.72-.78-2.26-1.05-.68-2.24-.53-3.41-.55v4.82h0Z" fill="#fff" stroke-width="0"></path><path d="m806.18,23.47h2.44c.01.21.03.39.03.57,0,3.9,0,7.82.01,11.72,0,.52-.14.71-.66.67-.37-.04-.75-.04-1.12,0-.54.05-.71-.14-.71-.69.02-3.25.01-6.5.01-9.75v-2.52h0Z" fill="#fff" stroke-width="0"></path></svg>