<?xml version="1.0" encoding="UTF-8"?><svg id="a" xmlns="http://www.w3.org/2000/svg" viewBox="0 0 75.26 24.23"><rect x=".1" y=".21" width="75" height="23.8" fill="none" stroke-width="0"/><path id="b" d="m9.84,13.31h.55v-.23c0-2.16-1.35-2.9-3.16-2.9-1.62.1-3.18.65-4.51,1.58l-1.55-2.93c1.89-1.33,4.14-2.04,6.45-2.03,4.32,0,6.84,2.39,6.84,6.54v10.28h-3.77v-1.35c0-.39.02-.77.06-1.16h-.06c-.95,1.87-2.91,3-5,2.9-2.93,0-5.57-1.84-5.57-5.13,0-5.22,7.06-5.58,9.74-5.58m-3.13,7.51c2.16,0,3.71-2.32,3.71-4.32v-.39h-.71c-2.1,0-5.48.29-5.48,2.58.03,1.21,1.03,2.17,2.24,2.15.08,0,.16,0,.24-.02" fill="#fff" stroke-width="0"/><path id="c" d="m25.79,10.44h-4.56v13.19h-4.1v-13.19h-2.03v-3.26h2.03v-.48c0-5.38,4.42-6.09,6.71-6.09.46,0,.93.03,1.39.1v3.48c-.28-.04-.56-.07-.84-.07-1.16,0-3.16.29-3.16,2.68v.39h8.66v16.44h-4.1v-13.19Z" fill="#fff" stroke-width="0"/><path id="d" d="m32.33,7.19h3.93v1.9c0,.38-.02.75-.07,1.13h.07c1.13-2.16,3.4-3.49,5.84-3.42,3.64,0,5.71,1.9,5.71,6.26v10.58h-4.06v-9.74c0-2-.52-3.35-2.61-3.35-2.06-.02-3.88,1.36-4.42,3.35-.21.71-.31,1.45-.29,2.19v7.54h-4.1V7.19Z" fill="#fff" stroke-width="0"/><rect id="e" x="50.01" y="7.19" width="4.09" height="16.44" fill="#fff" stroke-width="0"/><path id="f" d="m57.62,10.7h-2.13v-3.26h2.23V2.7h4v4.74h3.74v3.26h-3.74v6.38c-.11,1.61,1.11,3,2.72,3.11.18.01.36,0,.54-.01.25,0,.5-.02.74-.06v3.58c-.42.07-.84.1-1.26.1-2.29,0-6.83-.68-6.83-6.19v-6.9Z" fill="#fff" stroke-width="0"/><rect id="g" x="67.23" y="7.19" width="4.09" height="16.44" fill="#fff" stroke-width="0"/><path id="h" d="m52.02,5.2c1.37,0,2.48-1.1,2.51-2.47,0-1.39-1.12-2.51-2.51-2.51-1.38.03-2.47,1.17-2.44,2.54.03,1.34,1.1,2.41,2.44,2.44" fill="#fff" stroke-width="0"/><path id="i" d="m69.24,5.2c1.37,0,2.49-1.1,2.52-2.47,0-1.39-1.13-2.51-2.52-2.51-1.38.03-2.47,1.17-2.44,2.54.03,1.34,1.1,2.41,2.44,2.44" fill="#fff" stroke-width="0"/><path id="j" d="m73.73,20.99c.77-.02,1.41.58,1.44,1.35.02.77-.58,1.41-1.35,1.44-.77.02-1.41-.58-1.44-1.35,0-.01,0-.03,0-.04,0-.76.6-1.38,1.35-1.39m0,2.58c.66.03,1.21-.47,1.25-1.13s-.47-1.21-1.13-1.25c-.66-.03-1.21.47-1.25,1.13,0,.02,0,.04,0,.06-.02.64.48,1.17,1.11,1.19,0,0,.01,0,.02,0m-.45-1.94h.53c.23-.01.43.16.45.4,0,.02,0,.03,0,.05.01.18-.1.35-.28.4h0s.04.06.05.09l.29.56h-.24l-.3-.61h-.29v.61h-.21v-1.5Zm.49.72c.14,0,.26-.1.26-.24,0-.01,0-.03,0-.04.01-.13-.09-.25-.22-.26-.01,0-.03,0-.04,0h-.28v.54h.28Z" fill="#fff" stroke-width="0"/></svg>