<svg xmlns="http://www.w3.org/2000/svg" xmlns:xlink="http://www.w3.org/1999/xlink" id="a" viewBox="0 0 816 45"><defs><clipPath id="d"><rect x="203.09" y="18.05" width="92.91" height="17.96" fill="none" stroke-width="0"></rect></clipPath><clipPath id="r"><rect x="364" y="18.05" width="101" height="21.56" fill="none" stroke-width="0"></rect></clipPath><clipPath id="ba"><rect x="530.15" y="21.14" width="213.85" height="15.49" fill="none" stroke-width="0"></rect></clipPath></defs><rect id="b" x="-2" width="818" height="46" fill="#0a2133" stroke-width="0"></rect><g id="c"><g clip-path="url(#d)"><g id="e"><path id="f" d="m203.09,25.72c.05-.2.1-.39.13-.6.11-.63.22-1.26.33-1.9.02-.13.07-.18.21-.18,3.15,0,6.31,0,9.46,0,.04,0,.09,0,.15.01-.06.34-.11.67-.17.99-.1.55-.2,1.09-.29,1.64-.03.16-.1.19-.24.18-.88,0-1.75,0-2.63,0-.28,0-.29-.05-.35.29-.22,1.27-.44,2.54-.67,3.81-.27,1.5-.53,3-.8,4.49-.05.3-.11.61-.15.91-.02.14-.07.2-.23.2-.99,0-1.97,0-2.96,0-.05,0-.09,0-.16-.01.03-.2.07-.39.1-.58.24-1.38.48-2.75.73-4.13.28-1.58.56-3.17.85-4.75.04-.22.03-.23-.18-.23h-2.98c-.05,0-.1,0-.15.02v-.17" fill="#fff" stroke-width="0"></path><path id="g" d="m296,18.56c-.08.2-.15.39-.23.59-.31.73-.69,1.44-1.13,2.1-.07.11-.19.18-.32.2-.74.12-1.48.15-2.23.07-.04,0-.07,0-.11.02.56.38,1.18.66,1.84.81-.21.24-.4.45-.59.66-.12.13-.26.26-.39.39-.09.1-.23.15-.37.12-.89-.1-1.76-.31-2.6-.63-.03,0-.05-.01-.12-.03.13.24.32.45.55.6.21.16.43.31.66.44.23.13.48.24.74.38-.65.47-1.43.73-2.23.76-1.21.02-2.39-.4-3.31-1.2.16-.18.3-.36.45-.51.77-.75,1.65-1.38,2.61-1.86.72-.38,1.46-.71,2.19-1.07.06-.03.12-.06.17-.11-1.55.26-3.03.86-4.32,1.75-1.32.85-2.47,1.95-3.38,3.24-.19-.25-.17-.6.04-.82.33-.39.69-.77,1.04-1.14.18-.19.38-.37.56-.56.06-.06.1-.14.12-.22.32-2.11,1.91-3.8,3.99-4.26.84-.17,1.7-.18,2.54-.03.66.09,1.31.18,1.98.23.5.04,1-.06,1.45-.29.07-.04.13-.09.19-.14h.21v.52Z" fill="#fff" stroke-width="0"></path><path id="h" d="m212.34,35.56c.04-.25.08-.49.12-.73.19-1.09.38-2.18.57-3.26.22-1.23.44-2.47.66-3.7.17-.97.34-1.94.51-2.91.1-.59.21-1.17.31-1.76.02-.11.06-.14.16-.14,1.83,0,3.67,0,5.5.02.67-.01,1.34.14,1.94.44.57.3,1.02.8,1.26,1.4.55,1.24.45,2.67-.27,3.82-.27.45-.67.81-1.15,1.03-.05.02-.1.05-.16.08.02.04.05.07.08.1.37.33.59.8.61,1.3.06.64.08,1.28.11,1.92.03.77.22,1.53.55,2.22.02.06.04.11.06.17-.07,0-.12.01-.17.01-1.08,0-2.17,0-3.25,0-.17,0-.2-.09-.23-.21-.12-.48-.19-.98-.19-1.48,0-.58-.01-1.16-.04-1.74-.01-.18-.05-.36-.11-.53-.16-.42-.56-.69-1.01-.68-.54-.04-1.08-.03-1.61-.05-.12,0-.16.07-.17.17-.14.8-.28,1.6-.42,2.4-.12.66-.24,1.32-.36,1.98-.01.07-.02.13-.12.13-1.03,0-2.06,0-3.1,0-.04,0-.07-.01-.1-.02m4.63-7.48s.04.02.07.02c.75,0,1.5.02,2.25,0,.52.03.98-.33,1.08-.84.05-.17.08-.35.08-.53.04-.27-.08-.54-.31-.68-.16-.1-.34-.16-.53-.18-.7-.03-1.41-.02-2.11-.03-.12,0-.15.06-.17.16-.07.4-.14.8-.21,1.2-.05.29-.1.58-.15.87" fill="#fff" stroke-width="0"></path><path id="i" d="m236,23.07c-.09.54-.18,1.07-.28,1.6-.18,1-.35,2-.53,2.99-.24,1.32-.46,2.64-.74,3.95-.17.98-.6,1.89-1.25,2.64-.52.57-1.18,1-1.9,1.25-.73.28-1.51.41-2.29.38-1.17,0-2.32-.31-3.32-.93-.79-.52-1.32-1.34-1.48-2.27-.14-.75-.14-1.51,0-2.26.24-1.52.51-3.04.78-4.55.15-.89.31-1.78.47-2.67.02-.1.05-.16.17-.16,1,0,2.01,0,3.01,0,.04,0,.09,0,.15.02-.07.36-.12.71-.18,1.06-.16.93-.33,1.86-.49,2.79-.19,1.04-.39,2.08-.56,3.13-.08.48-.14.96-.16,1.45-.06.63.38,1.21,1,1.31.58.17,1.2.13,1.75-.12.41-.21.73-.57.89-1.01.22-.54.37-1.1.45-1.67.15-.82.29-1.65.43-2.47.16-.92.32-1.84.48-2.76l.27-1.58c.02-.08.04-.15.15-.15,1.04,0,2.08,0,3.11,0,.02,0,.05.01.07.02" fill="#fff" stroke-width="0"></path><path id="j" d="m241.33,30.7c.02-.17.04-.31.07-.46.07-.45.15-.89.21-1.34.02-.16.08-.22.25-.22,1.85,0,3.69,0,5.54,0,.18,0,.2.03.16.24-.09.5-.18.99-.28,1.48-.2,1.11-.41,2.22-.61,3.33-.12.62-.23,1.25-.34,1.87-.02.12-.06.19-.21.18-.58,0-1.16,0-1.74,0-.18,0-.2-.02-.17-.2.02-.09.03-.19.05-.32-.22.1-.41.19-.59.27-.89.37-1.86.52-2.82.43-.9-.06-1.77-.36-2.53-.85-.71-.47-1.29-1.12-1.68-1.87-.41-.75-.66-1.57-.74-2.42-.08-.82-.04-1.65.13-2.46.21-1.12.66-2.18,1.32-3.11.86-1.25,2.16-2.12,3.63-2.46,1.19-.3,2.44-.26,3.61.13,1.56.48,2.72,1.79,3.01,3.39.07.31.12.63.18.94.04.19.02.22-.18.23-.62.04-1.25.07-1.87.11-.13,0-.17-.05-.19-.18-.07-.43-.17-.86-.31-1.28-.26-.66-.83-1.15-1.52-1.31-1.14-.34-2.37-.15-3.35.53-.8.57-1.41,1.36-1.75,2.29-.36.91-.52,1.9-.45,2.88.03.59.17,1.16.42,1.69.4.85,1.2,1.45,2.13,1.59.69.13,1.4.09,2.07-.13.91-.29,1.64-.97,2.01-1.86.12-.3.22-.61.3-.93.05-.18.04-.2-.16-.2h-3.64" fill="#fff" stroke-width="0"></path><path id="k" d="m257.7,35.79c-.07,0-.12,0-.17,0-.66,0-1.32,0-1.98,0-.12.01-.23-.06-.26-.17-.3-.64-.47-1.33-.51-2.04l-.13-1.97c0-.57-.46-1.04-1.03-1.05-.58-.07-1.17-.09-1.76-.11-.3-.02-.61,0-.91,0-.14,0-.21.04-.24.2-.23,1.33-.47,2.65-.71,3.97-.06.35-.12.7-.19,1.05,0,.05-.08.12-.12.12-.68,0-1.35,0-2.03,0-.03,0-.05-.01-.07-.02.04-.27.08-.55.13-.82.14-.83.29-1.66.43-2.49.13-.76.26-1.51.39-2.27.16-.92.32-1.84.47-2.76.13-.76.27-1.52.4-2.28.13-.73.26-1.45.38-2.18.02-.12.07-.14.17-.14,1.52,0,3.04-.02,4.56.01.9,0,1.77.28,2.49.81.61.46,1.01,1.14,1.11,1.89.11.71.04,1.43-.22,2.1-.32.76-.88,1.4-1.61,1.8-.21.13-.22.13-.05.3.35.37.56.85.59,1.36.06.53.08,1.05.1,1.58.05.97.28,1.93.67,2.82.04.08.06.17.09.27m-4.79-10.96v.02h-1.03c-.13,0-.19.05-.21.19-.03.22-.07.44-.11.66-.15.86-.3,1.73-.45,2.59-.02.11.01.15.12.16.17,0,.34.02.51.02.74.04,1.49,0,2.23-.14.96-.13,1.72-.87,1.9-1.82.13-.51-.07-1.04-.51-1.34-.23-.12-.47-.2-.73-.24-.57-.06-1.14-.07-1.71-.1" fill="#fff" stroke-width="0"></path><path id="l" d="m280.51,26.99c-.05.26-.1.53-.14.79-.12.67-.23,1.34-.34,2.01-.15.85-.29,1.7-.44,2.55-.16.92-.32,1.85-.48,2.77-.03.19-.06.39-.1.57-.02.06-.07.1-.13.11-.64,0-1.28,0-1.93,0-.11,0-.14-.04-.12-.15.18-.99.35-1.97.52-2.96.16-.91.31-1.83.46-2.74.13-.74.26-1.47.39-2.21.2-1.19.41-2.38.61-3.57.07-.38.14-.77.2-1.15.02-.14.08-.19.22-.18.52,0,1.04.01,1.56,0,.14-.02.28.07.32.21.38.85.77,1.69,1.16,2.53.83,1.8,1.65,3.59,2.48,5.39.12.25.22.52.33.77.02.05.05.09.1.11.04-.2.08-.41.11-.61.15-.85.29-1.69.44-2.54.16-.92.31-1.84.47-2.76.04-.26.09-.52.13-.78.03-.17.11-.14.22-.08.35.17.69.35,1.05.51.21.09.43.16.65.23.08.01.14.09.13.17,0,.01,0,.02,0,.03-.25,1.43-.5,2.86-.74,4.3-.23,1.33-.46,2.66-.68,3.99-.08.45-.15.89-.22,1.34-.02.12-.06.17-.18.17-.6,0-1.2,0-1.81,0-.09,0-.18-.05-.21-.14-.25-.56-.51-1.12-.77-1.67-.58-1.27-1.16-2.54-1.74-3.81-.47-1.02-.93-2.04-1.39-3.07-.02-.05-.04-.09-.07-.13h-.05" fill="#fff" stroke-width="0"></path><path id="m" d="m277.95,22.84c-.13.66-.25,1.29-.37,1.92,0,.04-.07.08-.12.1-.05.01-.1.01-.15,0h-5.33c-.4,0-.38-.02-.44.35-.15.94-.32,1.87-.48,2.81-.04.22-.02.25.21.25h5.2c.28,0,.28,0,.23.27-.1.53-.19,1.06-.28,1.59-.02.12-.09.15-.19.15-1.13,0-2.26,0-3.39,0-.67,0-1.34.01-2.01,0-.12,0-.16.06-.18.16-.09.53-.18,1.05-.27,1.58-.09.49-.17.98-.26,1.47-.05.26-.04.29.23.29,1.62,0,3.25,0,4.87,0h.88c.24,0,.25.02.22.24-.06.41-.13.81-.19,1.22-.02.14-.05.28-.07.42,0,.11-.06.15-.17.14-.07,0-.15,0-.22,0h-7.97c-.23,0-.23,0-.19-.23.16-.93.33-1.86.49-2.79.13-.74.26-1.49.39-2.23.16-.92.32-1.84.48-2.76.14-.81.28-1.61.42-2.42.13-.77.27-1.54.4-2.32.02-.15.07-.22.25-.22,2.6,0,5.21,0,7.81,0h.21" fill="#fff" stroke-width="0"></path><path id="n" d="m258.02,35.78c.08-.46.15-.89.22-1.32.13-.75.26-1.5.39-2.25.12-.68.24-1.36.36-2.05.2-1.18.41-2.36.61-3.53.14-.81.28-1.62.42-2.44.07-.39.14-.78.2-1.17.02-.14.07-.2.22-.2,2.62,0,5.24,0,7.86,0,.05,0,.09,0,.17.01-.02.15-.04.3-.07.44-.08.45-.18.9-.26,1.35-.03.16-.09.23-.27.23-1.76,0-3.52,0-5.28,0-.58,0-.45-.05-.54.48-.13.74-.26,1.49-.39,2.23-.03.18-.06.36-.09.54-.02.1.02.14.11.15h5.33c.25,0,.25,0,.21.25-.09.54-.19,1.07-.28,1.61-.02.1-.06.15-.15.15h-4.9c-.18,0-.37,0-.55.02-.07.01-.12.06-.15.12-.2,1.06-.38,2.13-.57,3.19-.02.13.03.17.14.17.15,0,.31,0,.46,0h5.47c.14,0,.18.04.16.18-.09.55-.18,1.11-.26,1.66-.02.13-.07.19-.21.19-2.74,0-5.48,0-8.22,0-.05,0-.09,0-.16-.02" fill="#fff" stroke-width="0"></path><path id="o" d="m288.86,33.7c.57-.03,1.06.41,1.08.98,0,.02,0,.04,0,.06.03.58-.41,1.08-1,1.12,0,0-.01,0-.02,0-.59.04-1.1-.4-1.15-.99,0,0,0-.02,0-.03-.05-.57.36-1.07.93-1.13.05,0,.1,0,.15,0m.01,2.02c.52,0,.94-.44.93-.96,0-.52-.44-.94-.96-.93-.52,0-.94.43-.93.96.01.52.44.94.96.94" fill="#fff" stroke-width="0"></path><path id="p" d="m288.5,35.38s-.03-.09-.04-.13v-.93c0-.11.05-.16.15-.15.14,0,.29,0,.43.01s.28.05.31.22c.05.17-.05.34-.21.39,0,0,0,0,0,0l-.09.04.26.52s-.02.03-.02.04c-.05-.03-.12-.04-.15-.09-.09-.13-.14-.28-.24-.39-.06-.06-.14-.09-.22-.1-.02,0-.08.11-.08.17,0,.13,0,.26,0,.39h-.09m.35-1.08s-.06,0-.1,0c-.14,0-.17.07-.17.2s.07.16.17.15c.03,0,.07,0,.1,0,.22.02.36-.04.36-.16s-.12-.2-.37-.2" fill="#fff" stroke-width="0"></path></g></g></g><g id="q"><g clip-path="url(#r)"><g id="s"><path id="t" d="m367.89,18.05c.76.49.81.9.33,1.69-3.17,5.23-3.17,10.46,0,15.69.11.16.21.33.28.51.15.48-.13.99-.61,1.14-.38.12-.79-.03-1.02-.36-.49-.68-.92-1.41-1.26-2.17-2.46-5.49-2.09-10.78,1.1-15.88.16-.25.38-.46.63-.62h.55Z" fill="#fff" stroke-width="0"></path><path id="u" d="m460.56,18.47c-.32.1-.59.38-.64.72-.05.33.14.66.3.93,3.17,5.23,3.17,10.46,0,15.69-.11.16-.21.33-.28.51-.15.48.13.99.61,1.14.38.12.79-.03,1.02-.36.49-.68.92-1.41,1.26-2.17.67-1.46,1.15-3.02,1.41-4.6.24-1.5.26-3.03.05-4.53s-.67-3.03-1.31-4.44c-.25-.54-.52-1.08-.82-1.6-.25-.43-.52-1.06-1-1.28-.19-.08-.4-.08-.59-.02Z" fill="#fff" stroke-width="0"></path><path id="v" d="m438.88,23.82c2-2.54,4.72-2.49,6.36.06.17-.2.34-.4.5-.6,1.05-1.29,2.42-1.51,3.95-1.15,1.34.31,2.37,1.39,2.61,2.75.14.6.2,1.21.19,1.83,0,1.94,0,3.88,0,5.82,0,.28-.05.39-.36.38-1.18-.02-2.37-.02-3.55,0-.27,0-.32-.09-.32-.33,0-1.79,0-3.59,0-5.38,0-.35-.03-.71-.09-1.06-.05-.51-.51-.88-1.02-.83,0,0,0,0,0,0-.52-.09-1.02.23-1.15.74-.11.45-.16.91-.13,1.36,0,1.71,0,3.41,0,5.11,0,.3-.07.4-.39.39-1.16-.02-2.31-.02-3.47,0-.29,0-.38-.07-.37-.36.01-1.78,0-3.56,0-5.35,0-.33-.03-.65-.07-.98-.12-.62-.72-1.02-1.34-.9-.4.08-.73.37-.86.75-.11.42-.16.85-.14,1.28,0,1.73-.01,3.46,0,5.19,0,.3-.09.37-.37.36-1.17-.02-2.34-.02-3.51,0-.28,0-.35-.09-.35-.36,0-3.31,0-6.63,0-9.94,0-.25.07-.33.33-.33,1.08.01,2.16.01,3.23,0,.25,0,.35.05.34.32-.02.37,0,.75,0,1.22" fill="#fff" stroke-width="0"></path><path id="w" d="m378.57,29.6h1.74c.17,0,.26.01.31.23.3.85,1.22,1.3,2.07,1,.16-.06.32-.14.46-.25.32-.25.37-.71.12-1.03-.08-.1-.19-.18-.31-.23-.58-.24-1.19-.41-1.81-.5-.89-.16-1.76-.41-2.6-.76-2.24-1.02-2.09-4.02-.3-5.15.85-.52,1.82-.83,2.82-.89,1.4-.17,2.82,0,4.14.51,1.04.4,1.79,1.32,1.97,2.42.05.26.04.37-.28.37-1.08-.02-2.16-.01-3.23,0-.2,0-.28-.06-.35-.26-.37-.72-1.26-1.01-1.99-.63-.06.03-.12.07-.18.11-.25.19-.3.54-.11.79.05.07.12.13.2.17.38.21.79.35,1.22.42.93.18,1.84.41,2.74.69.25.09.49.19.72.3,1,.4,1.68,1.35,1.72,2.43.09,1.15-.47,2.26-1.45,2.87-.83.51-1.77.82-2.74.89-1.53.24-3.09.1-4.54-.42-1.24-.42-2.13-1.5-2.31-2.8-.04-.23,0-.3.24-.29.58.01,1.16,0,1.74,0" fill="#fff" stroke-width="0"></path><path id="x" d="m434.66,32.9h-3.34c-.43,0-.96.13-1.27-.07s-.42-.72-.62-1.11c-.29-.58-.58-1.17-.87-1.76,0-.02-.03-.03-.08-.07-.45.88-.91,1.74-1.33,2.63-.09.26-.36.41-.63.37-1.39-.02-2.78,0-4.18,0,.02-.15.09-.29.2-.4,1.11-1.62,2.23-3.24,3.35-4.85.16-.17.16-.44,0-.61-1.03-1.46-2.04-2.92-3.05-4.39-.1-.1-.17-.23-.2-.37h1.81c.83,0,1.66.01,2.48,0,.22-.03.43.11.5.32.37.76.76,1.51,1.18,2.33.42-.77.82-1.47,1.18-2.19.11-.31.42-.5.74-.46,1.35.03,2.7.01,4.06.01.03.16-.08.23-.15.32-1.06,1.48-2.13,2.96-3.2,4.43-.16.16-.17.41-.02.58,1.09,1.63,2.17,3.27,3.25,4.91.1.1.16.23.18.37" fill="#fff" stroke-width="0"></path><path id="y" d="m410.2,31.73c-.12.13-.16.17-.2.22-1.04,1.19-2.72,1.6-4.19,1.02-1.11-.45-1.82-1.54-1.78-2.73-.12-1.88-.03-3.77-.05-5.66,0-.18.04-.26.24-.25.98,0,1.97.01,2.95,0,.28,0,.24.16.24.33v4.17c0,.28.01.55.06.82.05.51.47.9.98.9.54.12,1.08-.17,1.29-.68.13-.33.2-.68.19-1.04,0-1.38.02-2.75,0-4.13,0-.28.06-.38.36-.38.92.02,1.84.02,2.76,0,.24,0,.34.04.34.32-.01,2.66-.01,5.32,0,7.98,0,.25-.05.35-.32.34-.85-.02-1.71-.02-2.56,0-.27,0-.34-.1-.32-.34.02-.26,0-.52,0-.89" fill="#fff" stroke-width="0"></path><path id="z" d="m415.44,30.26c.43,0,.87,0,1.3,0,.17,0,.28,0,.32.23.18.95,1.53,1.01,2.03.59.27-.2.32-.57.13-.84-.07-.1-.18-.17-.29-.21-.51-.2-1.05-.34-1.59-.42-.65-.11-1.28-.29-1.89-.55-.79-.3-1.34-1.03-1.41-1.88-.12-.94.32-1.86,1.12-2.35.63-.4,1.34-.63,2.08-.69,1.1-.15,2.21-.05,3.27.28.96.27,1.68,1.06,1.87,2.03.05.25.01.35-.27.34-.84-.02-1.68,0-2.52,0-.17,0-.27-.01-.35-.21-.32-.59-1.05-.8-1.64-.48-.03.02-.07.04-.1.06-.21.14-.26.43-.11.64.05.08.13.13.21.17.37.18.76.3,1.16.36.77.14,1.54.35,2.28.61,1,.4,1.72,1.04,1.74,2.19.07,1.09-.58,2.1-1.6,2.48-1.78.78-3.79.82-5.6.12-.92-.32-1.58-1.11-1.75-2.07-.06-.28-.03-.44.33-.41.43.03.87,0,1.3,0" fill="#fff" stroke-width="0"></path><path id="aa" d="m395.88,25.98c.1-.2.19-.4.3-.59.5-.92,1.51-1.43,2.54-1.29.14,0,.25.02.25.21,0,1.07,0,2.14,0,3.24-.3-.06-.62-.09-.93-.08-.96-.06-1.78.67-1.84,1.63,0,.01,0,.03,0,.04-.08,1.03-.1,2.06-.07,3.1-.01.72,0,.72-.72.72-.8,0-1.6,0-2.4,0-.25,0-.31-.08-.31-.31,0-2.67,0-5.34,0-8.01,0-.24.06-.31.3-.31.84.02,1.68.02,2.52,0,.26,0,.3.09.29.32-.02.44,0,.89,0,1.33h.06" fill="#fff" stroke-width="0"></path><path id="ab" d="m403.14,28.62c0,1.32,0,2.65,0,3.97,0,.3-.09.37-.38.37-.92-.02-1.84-.01-2.76,0-.26,0-.33-.08-.33-.34,0-2.66,0-5.32,0-7.97,0-.27.09-.32.34-.32.93.01,1.87.01,2.8,0,.26,0,.33.07.33.33-.01,1.32,0,2.65,0,3.97" fill="#fff" stroke-width="0"></path><path id="ac" d="m391.79,28.66c0,1.31-.01,2.62,0,3.93,0,.3-.09.37-.37.36-.91-.02-1.81-.01-2.72,0-.23,0-.35-.03-.35-.32.01-2.67.01-5.34,0-8.02,0-.26.1-.3.32-.29.93.01,1.87.02,2.8,0,.27,0,.32.08.32.33-.01,1.34,0,2.67,0,4.01" fill="#fff" stroke-width="0"></path><path id="ad" d="m461.29,27.72c-.02,2.3-.76,4.54-2.12,6.4-.2.36-.59.55-.99.5-.5-.08-.84-.54-.77-1.04.03-.17.1-.32.2-.45,2.4-3.24,2.43-7.66.07-10.93-.22-.23-.33-.54-.31-.86.04-.36.3-.67.66-.76.38-.12.79.03,1.01.35.74.96,1.3,2.03,1.68,3.18.38,1.16.57,2.38.57,3.61" fill="#fff" stroke-width="0"></path><path id="ae" d="m367.78,27.62c-.02-2.37.74-4.67,2.16-6.57.23-.46.8-.64,1.25-.4.46.23.64.8.4,1.25-.04.09-.1.17-.17.23-2.41,3.24-2.42,7.67-.03,10.92.36.37.35.96-.01,1.31s-.96.35-1.31-.01c-.07-.07-.12-.14-.16-.23-1.39-1.88-2.14-4.17-2.13-6.51" fill="#fff" stroke-width="0"></path><path id="af" d="m374,22.77c.32.02.61.2.75.49.18.3.15.68-.07.96-.39.5-.68,1.06-.88,1.66-.55,1.65-.26,3.46.78,4.85.15.17.26.36.32.58.08.4-.12.8-.48.98-.39.21-.87.1-1.14-.25-.63-.76-1.09-1.65-1.33-2.6-.6-2.12-.18-4.39,1.14-6.15.19-.32.54-.52.91-.53" fill="#fff" stroke-width="0"></path><path id="ag" d="m457.37,27.79c-.03,1.5-.55,2.95-1.48,4.13-.26.46-.85.61-1.3.35-.02-.01-.04-.03-.06-.04-.41-.31-.5-.89-.19-1.3.02-.03.04-.06.07-.08,1.5-1.9,1.52-4.57.05-6.5-.35-.37-.33-.96.04-1.31.37-.35.96-.33,1.31.04.05.06.1.12.14.19.98,1.31,1.48,2.91,1.43,4.54" fill="#fff" stroke-width="0"></path><path id="ah" d="m401.43,23.63c-.47,0-.95-.02-1.42,0-.27.01-.34-.09-.32-.34.04-.43-.18-.98.09-1.25.25-.24.8-.06,1.22-.07.6,0,1.21,0,1.81,0,.25,0,.36.04.34.32-.02.34-.02.68,0,1.02.01.23-.05.32-.3.31-.47-.02-.95,0-1.42,0" fill="#fff" stroke-width="0"></path><path id="ai" d="m390.09,21.99c.47,0,.95,0,1.42,0,.19,0,.29.02.28.25-.02.39-.01.79,0,1.18,0,.18-.06.22-.23.22-.99,0-1.97,0-2.96,0-.19,0-.25-.05-.25-.24.01-.38.01-.76,0-1.14,0-.21.07-.27.27-.26.49.01.97,0,1.46,0" fill="#fff" stroke-width="0"></path><path id="aj" d="m439.71,39.59c-.79.05-1.48-.54-1.53-1.33,0-.04,0-.09,0-.13.02-.85.73-1.53,1.58-1.51.82.02,1.48.67,1.51,1.49.02.8-.62,1.47-1.42,1.49-.05,0-.09,0-.14,0m-.85-1.45c-.01.48.37.88.85.9.01,0,.02,0,.03,0,.48-.02.86-.42.85-.9.02-.49-.36-.89-.85-.91-.01,0-.02,0-.03,0-.47,0-.86.36-.86.83,0,.03,0,.05,0,.08" fill="#fff" stroke-width="0"></path><path id="ak" d="m425.53,39.54c-.39.18-.85,0-1.02-.38,0,0,0-.01,0-.02-.11-.21-.19-.53-.57-.49-.18.02-.27.05-.25.24.01.12-.01.24,0,.35.03.27-.07.35-.34.36-.29,0-.31-.13-.31-.36.01-.76.01-1.52,0-2.27,0-.22.05-.3.28-.29.41.02.81,0,1.22.01.41-.02.77.25.88.65.17.4.02.87-.37,1.09-.17.12-.16.19-.05.33.18.25.35.51.53.78m-1.41-1.45c.09,0,.18,0,.27,0,.25-.03.43-.16.43-.42,0-.28-.19-.39-.43-.41-.17-.01-.34-.01-.51,0-.08,0-.15,0-.19.09-.14.23-.07.53.16.68.08.05.17.07.27.07" fill="#fff" stroke-width="0"></path><path id="al" d="m431.49,38.13c0-.39,0-.79,0-1.18,0-.19.03-.29.25-.28.35.02.71,0,1.06.01.79.04,1.41.71,1.37,1.5-.03.67-.51,1.22-1.17,1.35-.44.06-.89.07-1.33.05-.18,0-.18-.11-.18-.23v-1.22m.65,0v.62c0,.1-.02.23.13.23.36.08.74-.02,1.02-.27.23-.26.29-.63.15-.95-.13-.32-.45-.53-.8-.53q-.5-.04-.5.45v.43" fill="#fff" stroke-width="0"></path><path id="am" d="m416.86,38.1c0-.39,0-.79,0-1.18,0-.18.04-.25.24-.25.58.01,1.15.01,1.73,0,.22,0,.23.11.22.27s.01.31-.23.3c-.34-.02-.68.01-1.02,0-.25-.02-.31.07-.31.31,0,.26.1.31.32.3.26-.02.53,0,.79,0,.21-.01.27.07.26.27,0,.19,0,.33-.26.31-.25-.02-.5,0-.75,0-.2,0-.37-.03-.37.28,0,.3.12.34.38.33.33-.02.66,0,.98,0,.24-.01.23.13.23.3,0,.16,0,.28-.22.27-.59-.01-1.18-.01-1.77,0-.21,0-.23-.11-.23-.27,0-.41,0-.81,0-1.22" fill="#fff" stroke-width="0"></path><path id="an" d="m399.44,38.13c0-.41,0-.81,0-1.22,0-.19.06-.24.25-.24.58,0,1.15.01,1.73,0,.21,0,.23.1.23.27s.01.31-.23.3c-.37-.02-.74,0-1.1,0-.25-.01-.24.13-.23.3s-.03.32.22.31c.3-.02.6,0,.91,0,.24-.01.24.12.24.29,0,.18-.02.3-.25.29-.29-.02-.58.01-.87,0-.26-.02-.25.13-.26.31,0,.2.01.32.27.31.35-.02.71,0,1.06,0,.22,0,.26.08.26.28s-.03.31-.27.3c-.55-.02-1.1-.02-1.65,0-.26,0-.31-.09-.3-.32.02-.38,0-.76,0-1.14" fill="#fff" stroke-width="0"></path><path id="ao" d="m394.17,39.58c-.17.07-.37-.01-.44-.19-.01-.04-.02-.08-.02-.11-.07-.31-.26-.39-.54-.35-.12.02-.24.02-.35,0-.35-.05-.57.04-.66.42-.08.37-.39.22-.61.22-.15,0-.07-.14-.04-.21.36-.85.73-1.7,1.09-2.56.09-.2.26-.13.4-.15s.27,0,.34.17c.35.84.71,1.68,1.07,2.52.15.35-.13.19-.24.23m-1.59-1.25c.25.03.54.12.67-.03.11-.13-.1-.37-.17-.56-.02-.1-.07-.19-.15-.24l-.34.83" fill="#fff" stroke-width="0"></path><path id="ap" d="m426.89,39.55c.39-.93.79-1.85,1.19-2.77.09-.2.61-.18.7.02.4.91.78,1.82,1.18,2.75-.42.1-.75.08-.84-.41-.01-.12-.12-.22-.24-.2,0,0,0,0,0,0-.3,0-.61,0-.91,0-.12,0-.23.08-.24.21,0,0,0,0,0,0-.09.47-.41.5-.83.41m1.53-2.11c-.12.28-.22.51-.31.73-.03.07-.07.17.05.18.19.04.38.02.57-.03.1-.05-.06-.24-.1-.37-.05-.15-.12-.29-.21-.51" fill="#fff" stroke-width="0"></path><path id="aq" d="m388.95,39.59c-.29.02-.59-.05-.83-.21-.11-.07-.39-.09-.23-.34.12-.18.23-.42.53-.17.22.17.51.23.79.16.12-.01.22-.11.22-.24.01-.11-.06-.21-.16-.24-.23-.08-.47-.15-.71-.23-.51-.17-.69-.43-.65-.89.04-.42.39-.75.81-.77.34-.06.69,0,.99.17.11.06.37.08.19.32-.11.14-.16.43-.45.22-.19-.13-.42-.18-.64-.14-.13.02-.23.06-.25.2-.03.12.05.24.17.27.17.06.35.11.53.17.67.2.89.48.82,1-.07.49-.43.73-1.12.73" fill="#fff" stroke-width="0"></path><path id="ar" d="m414.07,36.68h.87c.2,0,.37-.03.37.29,0,.29-.13.31-.35.31-.54,0-.54,0-.54.53,0,.48-.01.97,0,1.45,0,.25-.06.35-.33.34-.24,0-.35-.05-.34-.32.02-.53-.02-1.05.02-1.57.03-.38-.12-.48-.46-.44-.28.04-.49.01-.44-.37.02-.17.07-.23.23-.22.33,0,.66,0,.98,0" fill="#fff" stroke-width="0"></path><path id="as" d="m396.65,36.68c.33,0,.66.02.98,0,.26-.02.23.13.23.3s.01.29-.23.3c-.65.03-.65.04-.65.7,0,.42-.01.84,0,1.26.01.26-.05.36-.34.36s-.32-.11-.32-.35c.01-.48,0-.97,0-1.45,0-.53,0-.54-.53-.52-.29,0-.41-.07-.38-.37.02-.17.06-.23.23-.23.33,0,.66,0,.98,0" fill="#fff" stroke-width="0"></path><path id="at" d="m406.94,38.14c0-.41.02-.81,0-1.22-.01-.28.16-.24.33-.24s.34-.03.32.25c-.02.35-.02.71,0,1.06.01.32-.14.74.07.95.2.19.6.04.91.06.08,0,.16,0,.24,0,.24-.02.25.12.24.29,0,.16.02.31-.23.31-.55-.01-1.1,0-1.66,0-.18,0-.23-.07-.22-.23,0-.41,0-.81,0-1.22" fill="#fff" stroke-width="0"></path><path id="au" d="m403.94,37.92c.02.3-.15.77.07,1s.69.06,1.06.07c.21,0,.34.02.34.29s-.09.33-.34.32c-.48-.02-.97-.01-1.46,0-.21,0-.31-.03-.3-.27.01-.8.02-1.6,0-2.39,0-.28.15-.25.32-.24s.35-.05.33.24c-.02.31,0,.63,0,1" fill="#fff" stroke-width="0"></path><path id="av" d="m436.51,38.15c0,.39-.02.78,0,1.17.02.29-.16.26-.35.26-.2,0-.31-.02-.31-.26.01-.79.01-1.59,0-2.39,0-.25.12-.27.31-.26.18,0,.37-.04.35.26-.02.4,0,.81,0,1.21" fill="#fff" stroke-width="0"></path><path id="aw" d="m411.27,38.14c0,.41-.01.81,0,1.22.01.25-.14.24-.3.23s-.35.07-.34-.22c.01-.83.01-1.65,0-2.48,0-.28.18-.2.32-.2s.33-.08.32.2c-.01.42,0,.84,0,1.26" fill="#fff" stroke-width="0"></path><path id="ax" d="m452.66,21.96l-.35-.49c0,.27,0,.42,0,.58,0,.08.04.22-.08.23-.16,0-.1-.15-.1-.24,0-.24,0-.47,0-.71,0-.07-.02-.17.08-.19.08-.02.16.02.2.09.03.06.08.11.11.16.14.29.25.21.38-.01.06-.11.1-.28.27-.24.21.05.09.24.1.36.01.21.01.42,0,.63,0,.06.01.14-.08.15-.12.01-.11-.08-.12-.16,0-.17,0-.34,0-.52-.21.05-.21.26-.39.36" fill="#fff" stroke-width="0"></path><path id="ay" d="m451.47,21.12c.07,0,.13,0,.2,0,.08,0,.2-.04.23.08.03.14-.1.12-.18.13-.28.03-.14.25-.17.39-.05.19.1.53-.1.53-.22,0-.06-.34-.11-.53-.04-.15.11-.39-.21-.4-.08,0-.17-.01-.15-.12s.12-.08.19-.08c.1,0,.21,0,.31,0" fill="#fff" stroke-width="0"></path></g></g></g><g id="az"><g clip-path="url(#ba)"><g id="bb"><path id="bc" d="m601.26,28.89v-6.46c0-.71.23-.93.93-.94h.76c.66,0,.9.25.91.93v3.86c0,.35,0,.7,0,1.05,0,.22.05.33.31.33,1.82,0,3.64,0,5.46,0,.3,0,.3-.16.3-.37v-4.62c0-1.03.14-1.17,1.19-1.17h.64c.39-.02.72.27.75.66,0,0,0,0,0,0v.03c.01.14.02.28.01.42v12.59c0,.93-.18,1.11-1.1,1.11h-.67c-.56-.01-.81-.26-.82-.84v-5.33c0-.38-.18-.58-.55-.58-1.68,0-3.36,0-5.04,0-.36,0-.48.09-.47.46.02,1.75,0,3.49,0,5.25,0,.84-.21,1.04-1.04,1.04h-.64c-.68,0-.91-.24-.91-.91v-6.5h-.02Z" fill="#fff" stroke-width="0"></path><path id="bd" d="m546.87,25.42c-.07.16-.1.33-.07.5v9.19c0,1.09-.1,1.19-1.21,1.18h-.21c-.36.04-.69-.22-.73-.59,0-.05,0-.1,0-.15-.01-.44,0-.89,0-1.34v-10.15c0-.79.18-.97.96-.97.5,0,1.01,0,1.51,0,.56-.05,1.09.29,1.27.82,1.42,3.18,2.86,6.35,4.3,9.52.06.14.12.27.22.47.08-.16.11-.35.08-.53v-9.23c0-.89.15-1.04,1.06-1.04h.25c.61,0,.83.23.83.84v11.5c0,.65-.21.85-.85.86-.56,0-1.12,0-1.68,0-.52.04-1-.28-1.16-.77-1.44-3.22-2.9-6.45-4.36-9.67-.06-.12-.12-.26-.21-.44h0Z" fill="#fff" stroke-width="0"></path><path id="be" d="m687.91,32.6c0,.85-.01,1.71,0,2.56.03.33-.17.63-.48.73-1.74.7-3.63.92-5.48.64-1.48-.11-2.87-.78-3.88-1.87-.85-1-1.39-2.22-1.54-3.52-.31-1.78-.24-3.61.19-5.37.48-2.36,2.41-4.15,4.8-4.44,1.9-.37,3.86-.19,5.65.52.65.26.67.31.55,1-.07.44-.16.88-.24,1.32-.04.17-.04.38-.25.44-.2.04-.4-.05-.51-.22-.6-.67-1.39-1.15-2.27-1.37-1.95-.63-4.04.45-4.67,2.4,0,0,0,0,0,0h0c-.02.07-.04.13-.06.2-.69,2.13-.68,4.43.01,6.56.43,1.69,2.02,2.82,3.76,2.67.46,0,.92-.04,1.38-.11.34-.05.47-.18.46-.55-.02-1.38,0-2.78,0-4.16,0-.64.06-.69.7-.7.45,0,.89,0,1.35,0,.39,0,.55.15.55.55-.01.89,0,1.78,0,2.69v.02Z" fill="#fff" stroke-width="0"></path><path id="bf" d="m532.75,27.28v4.32c-.02.55.04,1.09.2,1.62.23.77.85,1.36,1.63,1.55.71.19,1.45.21,2.16.04,1.17-.23,1.98-1.29,1.92-2.47.04-.67.02-1.34.02-2.02v-7.89c0-.82.23-1.06,1.04-1.06,1.32,0,1.4.08,1.4,1.4,0,3.02.02,6.04-.02,9.07-.04,2.58-1.59,4.26-4.16,4.6-1.1.16-2.22.11-3.3-.15-2.01-.39-3.46-2.16-3.45-4.21-.07-3.31-.03-6.63-.02-9.95-.03-.39.25-.73.64-.76h0s.08,0,.12,0c.31-.01.62-.01.93,0,.6.01.87.27.88.87.01.81,0,1.62,0,2.43v2.61h0Z" fill="#fff" stroke-width="0"></path><path id="bg" d="m660.21,29.69v-5.66c0-.73.19-.93.92-.93h.84c.55,0,.79.24.79.8,0,1.38.01,2.77,0,4.16,0,.38.09.5.49.49,1.4-.02,2.8-.02,4.2,0,.33,0,.44-.1.43-.43-.01-1.37,0-2.74,0-4.11,0-.71.2-.9.89-.9h.88c.53,0,.77.24.77.77,0,.89,0,1.78,0,2.69v8.81c0,.73-.18.92-.91.93h-.76c-.69,0-.88-.18-.88-.87v-4.28c.05-.37-.2-.7-.57-.76-.06,0-.12,0-.19,0-1.32,0-2.63,0-3.95,0-.31,0-.41.08-.4.4.01,1.54,0,3.08,0,4.61,0,.7-.2.89-.9.89h-.84c-.59,0-.8-.21-.81-.82v-5.79h-.01Z" fill="#fff" stroke-width="0"></path><path id="bh" d="m690.99,29.71v-5.75c0-.66.21-.87.85-.86,1.76.03,3.53-.11,5.29.08,1.59.05,2.93,1.19,3.25,2.75.52,1.75-.48,3.58-2.23,4.1h-.04c-.33.13-.29.24-.16.48.85,1.57,1.7,3.15,2.53,4.73.09.15.17.32.22.49.08.2-.02.43-.23.51-.06.02-.11.03-.17.03-.52.01-1.03,0-1.56,0-.25,0-.46-.16-.55-.39-1.04-2.03-2.09-4.06-3.12-6.09-.29-.57-.14-.79.51-.8.13,0,.25,0,.38-.01.76.08,1.5-.32,1.84-1,.4-.84.33-1.83-.17-2.61-.3-.42-.77-.67-1.29-.7-.82-.1-1.65-.03-2.47-.05-.31,0-.28.2-.28.4v10.38c0,.71-.19.89-.89.89h-.93c-.58,0-.78-.21-.78-.79v-5.79h0Z" fill="#fff" stroke-width="0"></path><path id="bi" d="m724.3,28.33v-4.33c0-.7.21-.91.89-.91.26,0,.5,0,.76,0,.35-.03.65.22.69.57h0s0,.08,0,.12c0,2.96.04,5.93-.02,8.89,0,1.69-1.15,3.16-2.79,3.59-1.39.43-2.87.43-4.26.01-1.64-.44-2.8-1.9-2.85-3.6-.11-1.99-.02-3.99-.04-6,0-.93,0-1.85,0-2.77,0-.59.23-.81.82-.82h.96c.57,0,.79.23.79.79v5.37c0,1.09-.03,2.19.01,3.28.07,1.85.9,2.62,2.68,2.56,1.19.1,2.22-.79,2.32-1.97,0,0,0,0,0,0h0c0-.1,0-.2,0-.29.04-1.49,0-2.99,0-4.49h.03Z" fill="#fff" stroke-width="0"></path><path id="bj" d="m576.14,29.69v-5.71c0-.66.22-.88.88-.88h6.67c.32,0,.65.02.79.35.17.37.16.8-.03,1.17-.15.28-.46.28-.74.28-1.48,0-2.97.01-4.45,0-.42,0-.55.1-.54.54.04.91.02,1.82,0,2.73,0,.31.09.41.4.4,1.35-.01,2.69,0,4.03,0,.32,0,.65,0,.79.34.17.37.17.8-.02,1.17-.15.28-.45.29-.74.29-1.32,0-2.63.01-3.95,0-.4,0-.53.1-.52.51.03,1.05.02,2.1,0,3.14,0,.37.09.5.49.49,1.59-.02,3.19,0,4.79,0,.33,0,.65.03.77.37.17.38.15.81-.04,1.18-.14.25-.42.25-.68.25h-7.14c-.6,0-.78-.18-.78-.78v-5.82Z" fill="#fff" stroke-width="0"></path><path id="bk" d="m615.94,29.75v-5.75c0-.7.21-.89.9-.89h6.64c.32,0,.65,0,.79.34.18.37.17.8-.02,1.17-.15.28-.45.29-.74.29h-4.46c-.27-.04-.51.15-.55.42,0,.04,0,.09,0,.13v2.52c0,.38.18.58.55.58h3.91c.65,0,.87.23.87.89,0,.69-.2.91-.85.91-1.35,0-2.69.01-4.03,0-.34,0-.46.1-.46.44.02,1.09.01,2.19,0,3.28,0,.32.09.44.43.43,1.62-.01,3.25,0,4.87,0,.34,0,.66.04.76.39.15.38.13.81-.06,1.18-.12.16-.32.25-.52.23h-7.39c-.49,0-.66-.21-.66-.71v-5.83h.01Z" fill="#fff" stroke-width="0"></path><path id="bl" d="m729.58,29.69v-5.66c0-.73.21-.93.92-.93h4.32c.42,0,.84.03,1.25.12,1.92.41,3.01,1.94,2.95,4.11-.07,2.32-1.4,3.67-3.73,3.77-.56.03-1.12,0-1.67-.1-.14-.02-.27-.07-.4-.13-.26-.1-.41-.37-.36-.65.05-.29.3-.5.59-.49.41-.03.85-.01,1.26-.07.98-.07,1.76-.84,1.85-1.81.07-.49.06-.98-.03-1.46-.15-1.07-1.11-1.84-2.19-1.75-.6-.03-1.21.01-1.8-.01-.36-.01-.44.12-.44.46.01,2.89,0,5.79,0,8.69v1.81c0,.54-.2.72-.74.73h-.88c-.71,0-.9-.19-.9-.89v-5.7h0Z" fill="#fff" stroke-width="0"></path><path id="bm" d="m651.43,30.4c0-1.65,0-3.3,0-4.95,0-.37-.07-.52-.48-.5-.87.03-1.73.01-2.61,0-.6,0-.79-.23-.79-.92s.21-.93.79-.94h8.73c.51,0,.73.23.76.74v.42c-.03.47-.23.69-.71.69-.85,0-1.71,0-2.56,0-.26-.04-.51.14-.55.4,0,0,0,0,0,0,0,.05,0,.09,0,.14v9.82c0,.81-.17.98-.98.98h-.8c-.58,0-.81-.23-.81-.82v-5.07Z" fill="#fff" stroke-width="0"></path><path id="bn" d="m567.66,30.44c0-1.68,0-3.35,0-5.04,0-.34-.08-.47-.44-.46-.81.02-1.62.01-2.44,0-.55,0-.76-.21-.76-.76v-.38c.02-.47.24-.71.7-.71h8.44c.35-.04.67.21.71.56,0,.04,0,.09,0,.13v.46c.04.35-.21.66-.56.69-.05,0-.1,0-.16,0-.82,0-1.65.02-2.48,0-.36,0-.44.11-.44.45.01,3.32,0,6.63,0,9.95,0,.76-.18.95-.93.95h-.84c-.59,0-.81-.23-.81-.82v-5.04Z" fill="#fff" stroke-width="0"></path><path id="bo" d="m640.26,29.71v-5.7c0-.69.21-.9.89-.91h.88c.58,0,.82.23.82.81v5.03c0,1.69,0,3.39,0,5.07,0,.34.1.42.42.42,1.26-.01,2.52,0,3.78,0,.34,0,.69.04.79.4.17.41.13.87-.1,1.24-.13.16-.32.23-.52.21h-6.26c-.5,0-.71-.25-.71-.84v-5.74Z" fill="#fff" stroke-width="0"></path><path id="bp" d="m561.69,29.71v5.71c0,.67-.21.87-.88.88h-.97c-.51-.01-.73-.24-.75-.75v-11.45c0-.81.19-.99.98-1h.8c.58,0,.81.24.81.82v5.78Z" fill="#fff" stroke-width="0"></path><path id="bq" d="m597.78,26.81c-.4-1.74-1.76-3.1-3.49-3.5-.61-.15-1.24-.22-1.87-.21h-4.37c-.69,0-.9.21-.9.89v11.5c0,.55.21.79.69.79,1.78,0,3.56.04,5.34-.02,2.24.01,4.17-1.54,4.65-3.73.51-1.88.5-3.86-.04-5.72h0Zm-2.5,5.6c-.35,1.42-1.65,2.4-3.12,2.34-.71.01-1.43,0-2.14.01-.31,0-.37-.12-.36-.4,0-1.56,0-3.14,0-4.7s0-3.11,0-4.66c0-.31.08-.42.4-.41.79.04,1.57-.03,2.35.04,1.37.05,2.54,1.01,2.86,2.34.53,1.77.54,3.65.02,5.42h0Z" fill="#fff" stroke-width="0"></path><path id="br" d="m713.67,26.24c-.48-1.71-1.9-2.98-3.65-3.27-.8-.15-1.61-.19-2.42-.12-2.2.03-4.09,1.55-4.6,3.68-.29,1.03-.42,2.09-.4,3.15-.03,1.19.14,2.37.5,3.5.53,1.75,2.04,3.03,3.85,3.26.8.14,1.62.16,2.42.07,2-.08,3.72-1.43,4.29-3.35.74-2.25.74-4.68,0-6.93h0Zm-2.42,6.49c-.27,1.57-1.77,2.62-3.34,2.35,0,0,0,0,0,0-.11-.02-.21-.04-.31-.07-.89-.18-1.61-.81-1.9-1.67-.41-1.18-.58-2.42-.51-3.67-.04-1.08.08-2.15.35-3.2.58-1.99,2.15-2.43,3.77-2.06.82.21,1.48.81,1.76,1.61.3.76.46,1.56.49,2.37.15,1.45.05,2.92-.3,4.33" fill="#fff" stroke-width="0"></path><path id="bs" d="m637.78,35.41c-1.24-3.87-2.49-7.74-3.75-11.61-.09-.45-.51-.75-.97-.71-.49,0-.98,0-1.47,0-.75,0-.94.15-1.17.87l-1.73,5.39c-.66,2.05-1.31,4.1-1.97,6.15-.18.56-.02.78.58.78h.55c.5.09.98-.25,1.06-.75h0v-.03c.21-.65.41-1.31.59-1.97.03-.2.21-.34.41-.31,1.4,0,2.8,0,4.2,0,.2-.03.38.11.41.31.15.51.32,1.01.47,1.52.19.77.91,1.3,1.7,1.24h.42c.69,0,.86-.22.65-.88h0Zm-4.24-3.82c-1.05-.01-2.1,0-3.14,0-.21,0-.31-.03-.23-.27.61-2,1.21-4,1.81-6,.03-.05.06-.1.1-.14.36,1.28.71,2.52,1.07,3.76.22.76.42,1.54.66,2.29.08.27.06.38-.26.37h0Z" fill="#fff" stroke-width="0"></path><path id="bt" d="m742.09,22.83c-1.04,0-1.89.83-1.9,1.88h0c-.01,1.06.83,1.92,1.88,1.94,1.05.01,1.92-.83,1.93-1.88.01-1.05-.83-1.92-1.88-1.93,0,0,0,0,0,0h-.03,0Zm.02,3.5c-.85,0-1.54-.67-1.55-1.52v-.1c-.04-.84.61-1.56,1.45-1.6.84-.04,1.56.61,1.6,1.45h0v.14c.05.85-.6,1.58-1.44,1.63h-.05" fill="#fff" stroke-width="0"></path><path id="bu" d="m742.65,25.23c-.14-.19-.26-.34.07-.49.21-.13.31-.38.24-.62-.03-.25-.22-.44-.47-.47-.13-.02-.26-.04-.4-.04-.81.01-.75-.1-.75.66,0,.39,0,.79,0,1.17,0,.15-.09.39.18.39s.18-.23.2-.37c0-.08,0-.17,0-.25.01-.12-.06-.27.1-.33s.25.07.33.2c.12.21.25.4.38.6.08.14.22.23.35.15.17-.1-.02-.21-.07-.31-.05-.1-.11-.2-.17-.28v-.02Zm-.56-.68c-.29.04-.36-.1-.36-.36,0-.25.11-.33.33-.3s.52-.02.53.33c.01.35-.27.31-.5.34h0Z" fill="#fff" stroke-width="0"></path></g></g></g><path d="m13.89,13.15c.15.01.29.03.44.04,1.45.12,2.82.54,4.14,1.15,1.75.8,3.32,1.87,4.8,3.08,1.73,1.41,3.29,2.99,4.76,4.65,1.3,1.47,2.5,3.02,3.67,4.6.99,1.34,2,2.67,3.09,3.93,1.66,1.93,3.44,3.74,5.45,5.31,1.35,1.06,2.79,2,4.36,2.72,1.2.55,2.45.96,3.76,1.15,1.7.24,3.37.14,5-.45,1.69-.62,3.01-1.72,4-3.21.82-1.22,1.33-2.57,1.68-3.99.25-1,.4-2.02.49-3.05.08-.89.11-1.79.08-2.69-.05-1.99-.37-3.93-1.12-5.78-.62-1.54-1.51-2.9-2.77-4-1.2-1.05-2.6-1.72-4.17-2.03-1.03-.2-2.07-.24-3.11-.17-2.21.16-4.26.86-6.2,1.92-2.05,1.13-3.84,2.61-5.47,4.28-.39.4-.76.82-1.13,1.23-.02.02-.05.05-.08.06.01-.02.03-.05.04-.07,1.1-1.48,2.26-2.9,3.59-4.18,1.48-1.42,3.12-2.6,5.01-3.41,1.19-.51,2.43-.85,3.72-1,.38-.04.77-.07,1.15-.1.04,0,.08-.01.12-.02.35,0,.7,0,1.05,0,.17.02.34.03.51.05,1.39.11,2.72.46,3.96,1.09,1.55.79,2.79,1.94,3.77,3.38.97,1.42,1.59,2.99,1.99,4.66.28,1.19.44,2.41.49,3.63.04,1,.02,1.99-.08,2.98-.2,2.05-.67,4.04-1.58,5.9-.74,1.51-1.72,2.82-3.05,3.87-1.24.97-2.63,1.59-4.18,1.89-.76.15-1.53.21-2.3.2-1.07-.01-2.11-.21-3.12-.54-1.83-.59-3.48-1.54-5.04-2.66-1.79-1.29-3.41-2.77-4.94-4.36-1.86-1.93-3.54-4.01-5.13-6.16-1.02-1.37-2.12-2.67-3.28-3.93-1.61-1.75-3.33-3.39-5.23-4.84-1.29-.98-2.65-1.86-4.13-2.55-1.09-.51-2.23-.89-3.42-1.09-.82-.13-1.64-.15-2.46-.08-.92.08-1.82.26-2.68.59-1.57.59-2.86,1.56-3.88,2.88-1.01,1.3-1.66,2.76-2.08,4.34-.28,1.03-.45,2.08-.53,3.14-.08.96-.09,1.93-.04,2.89.1,1.85.43,3.65,1.14,5.37.58,1.41,1.38,2.68,2.5,3.72,1.2,1.12,2.62,1.83,4.23,2.16,1.05.21,2.1.25,3.17.17,2.86-.22,5.43-1.23,7.81-2.79,1.43-.94,2.7-2.05,3.83-3.33.02-.02.04-.04.07-.06-.07.1-.15.19-.22.29-1.06,1.35-2.25,2.59-3.61,3.64-1.66,1.29-3.5,2.24-5.56,2.75-1.33.33-2.68.46-4.05.41-1.32-.05-2.59-.31-3.8-.83-1.47-.63-2.71-1.57-3.74-2.8-1.16-1.39-1.93-2.98-2.44-4.71-.3-1.01-.5-2.05-.62-3.1-.13-1.13-.16-2.26-.11-3.39.1-2.14.48-4.23,1.33-6.22.6-1.41,1.41-2.69,2.51-3.78,1.27-1.25,2.77-2.07,4.49-2.5.72-.18,1.45-.28,2.19-.3.05,0,.1-.01.15-.02.26,0,.52,0,.78,0Z" fill="#fff" stroke-width="0"></path><path d="m15.23,28.12c-.14.09-.26.16-.36.25-.8.64-1.6,1.28-2.39,1.94-.23.19-.43.41-.64.62-.25.25-.49.51-.74.76-.22.23-.43.46-.66.68-.13.13-.42.11-.57-.02-.14-.13-.17-.38-.04-.53.25-.28.51-.56.79-.81.48-.44.97-.85,1.46-1.28.72-.62,1.47-1.19,2.25-1.74.29-.2.56-.42.85-.62.01-.01.04-.03.04-.04,0-.14,0-.29,0-.43-.17.08-.32.18-.48.23-.19.06-.39.1-.59.04-.24-.07-.35-.25-.37-.48-.01-.18,0-.37-.01-.55-.02-.34.03-.67.08-1,.06-.38.23-.72.49-1,.14-.15.32-.26.52-.31.18-.04.26.03.23.21-.02.13-.07.24-.17.34-.08.08-.15.18-.19.29-.08.2-.17.4-.2.61-.04.27-.04.55-.04.82,0,.08.03.16.06.23.03.08.1.11.19.1.21-.02.41-.18.45-.38.06-.33.1-.66.13-1,.05-.44.07-.87.12-1.31.02-.17.15-.26.31-.3.13-.03.26-.03.35.09.03.04.05.1.05.16-.04.58-.08,1.16-.12,1.73-.02.31-.03.62-.04.93,0,.15-.01.31-.02.5,1.32-.88,2.69-1.59,4.05-2.38-.32-.16-.23-.43-.23-.67,0-.43.03-.86.05-1.28,0-.16-.1-.24-.27-.19-.08.02-.17.08-.23.14-.09.09-.17.19-.24.29-.03.05-.05.11-.06.17-.03.11-.06.23-.09.34,0,.02,0,.04,0,.07.02.12-.08.23,0,.35-.11.19-.07.39-.04.58.05.3-.21.68-.52.72-.18.02-.28-.06-.28-.24,0-.3.02-.61.03-.91.02-.37.04-.75.06-1.12.02-.34.29-.61.62-.58.1,0,.2,0,.3,0,.14,0,.24-.09.33-.19.13-.15.27-.3.46-.36.12-.04.25-.06.37-.05.15.01.26.17.27.33,0,.1.03.19,0,.29-.02.05.03.12.02.18,0,.2-.03.4-.04.6,0,.15.01.3.02.44,0,.16.01.32.03.48.02.12.17.21.29.16.24-.11.48-.22.71-.35.19-.1.39-.1.59-.05.13.03.2.27.14.4-.13.27-.35.44-.63.52-.81.22-1.54.59-2.27.99-.79.44-1.57.89-2.35,1.35-.28.16-.54.35-.8.53-.09.06-.18.13-.26.2-.02.02-.04.07-.04.1-.01.43-.02.86-.03,1.29,0,.3,0,.61-.02.91-.01.12.01.23,0,.34,0,.12-.03.25-.03.37,0,.08.02.16.03.24,0,.01,0,.02,0,.03-.04.13.04.24.05.37,0,.07,0,.13,0,.2,0,.03,0,.07,0,.07.1.04.05.16.11.22,0,.01-.01.05-.03.08-.06.08-.05.14.02.21.05.04.07.09.04.16-.01.03-.03.08-.02.09.07.08.05.15.03.24-.03.19-.18.35-.37.37-.35.03-.55-.16-.57-.56-.01-.29,0-.59,0-.88,0-.34,0-.68.02-1.02,0-.38.02-.76.03-1.14,0-.37,0-.74,0-1.15Z" fill="#fff" stroke-width="0"></path><path d="m9.46,28.41c-.03.1-.08.19-.09.28-.07.47-.12.94-.19,1.4-.05.34-.1.68-.16,1.02-.03.18-.13.3-.32.32-.18.02-.31-.06-.35-.25-.07-.32-.13-.63-.18-.95-.04-.24-.08-.48-.12-.72-.06-.36-.12-.71-.17-1.07-.07-.43-.13-.87-.19-1.3-.05-.32-.09-.65-.16-.97-.02-.12-.07-.22-.07-.35,0-.06-.08-.11-.13-.18-.18.27-.26.53-.35.8-.08.23-.17.46-.27.68-.06.14-.3.2-.44.14-.15-.07-.21-.21-.16-.38.08-.24.17-.48.25-.72.14-.4.27-.8.4-1.2.12-.36.24-.71.37-1.07.07-.19.23-.28.43-.27.18.01.31.13.35.34.05.22.08.45.12.67.04.24.1.47.13.71.04.22.06.43.09.65.01.08.05.17.06.25.04.19.08.39.12.58,0,.04,0,.09.02.12.05.11.08.21.03.33,0,.02-.02.06,0,.08.1.2.07.41.1.62,0,.07.02.15.04.22,0,.03.04.05.06.07.01,0,.02,0,.03,0,.02-.16.04-.33.07-.49.13-.76.25-1.52.41-2.28.11-.53.26-1.06.4-1.58.09-.34.18-.68.28-1.01.09-.33.18-.66.3-.98.3-.82.61-1.63.92-2.44.08-.2.16-.4.27-.59.06-.11.15-.2.24-.29.27-.24.58-.18.8,0,.23.19.25.52.09.79-.1.17-.23.29-.36.42-.26.27-.46.6-.61.95-.09.2-.18.4-.26.6-.16.42-.32.85-.47,1.28-.06.16-.07.34-.12.5-.03.13-.09.25-.13.37-.04.16-.07.32-.11.47-.02.08-.06.15-.09.22-.03.08-.05.16-.09.23-.15.31-.22.64-.29.97-.05.21-.08.42-.12.63-.03.16-.08.33-.12.49-.02.11-.04.23-.06.34-.03.18-.07.35-.1.53-.01.07.02.15.02.22,0,.1-.03.2-.06.29-.06.17-.1.34-.05.49Z" fill="#fff" stroke-width="0"></path><path d="m17.4,28.7c.36-.43.98-.4,1.26.06,0-.03.01-.05.02-.06.23-.29.57-.38.91-.26.27.1.44.31.45.59.02.47.02.94.02,1.41,0,.09-.05.14-.15.14-.08,0-.15,0-.23,0-.13,0-.16-.04-.16-.16,0-.36,0-.72,0-1.09,0-.25-.14-.41-.35-.42-.24,0-.42.17-.42.41,0,.35,0,.7,0,1.05,0,.18-.02.2-.2.21-.06,0-.12,0-.18,0-.12,0-.16-.04-.16-.17,0-.37,0-.73,0-1.1,0-.22-.12-.38-.32-.4-.23-.03-.41.1-.44.33-.02.13-.01.27-.01.4,0,.26,0,.51,0,.77,0,.13-.04.17-.17.17-.08,0-.16,0-.24,0-.09,0-.14-.04-.14-.14,0-.61,0-1.23,0-1.84,0-.09.05-.14.14-.14.07,0,.14,0,.21,0,.14,0,.17.03.18.17,0,.02,0,.04,0,.07Z" fill="#fff" stroke-width="0"></path><path d="m24.33,30.36s-.02,0-.02,0c-.31.45-1.11.29-1.4-.18-.29-.46-.24-1.15.14-1.51.28-.27.62-.33.99-.22.1.03.18.1.28.16,0-.03,0-.07,0-.11,0-.29,0-.59,0-.88,0-.15.03-.18.18-.18.06,0,.11,0,.17,0,.17,0,.2.03.2.2,0,.31,0,.63,0,.94,0,.61,0,1.23,0,1.84,0,.11-.04.15-.15.15-.08,0-.15,0-.23,0-.15,0-.16-.02-.17-.16,0-.02,0-.03,0-.05Zm.01-.86c-.02-.08-.03-.17-.05-.24-.07-.22-.25-.35-.48-.36-.23,0-.41.13-.49.34-.07.19-.06.38.02.57.1.24.34.35.59.29.25-.06.4-.29.41-.6Z" fill="#fff" stroke-width="0"></path><path d="m27.88,28.62c.02-.15.03-.17.19-.17.06,0,.12,0,.18,0,.15,0,.18.03.18.18,0,.37,0,.74,0,1.11,0,.23,0,.46.01.7,0,.1-.04.14-.13.14-.09,0-.18,0-.26,0-.11,0-.16-.04-.15-.15,0-.02,0-.04,0-.05-.12.07-.24.18-.37.21-.39.1-.73-.01-.99-.32-.38-.45-.34-1.2.07-1.6.28-.27.63-.33,1-.22.1.03.18.11.27.16Zm.01.86s0-.06,0-.11c-.04-.26-.23-.44-.48-.46-.26-.02-.48.14-.53.4-.03.14-.02.29,0,.43.04.2.18.34.4.38.2.04.36-.02.49-.18.1-.12.13-.27.13-.46Z" fill="#fff" stroke-width="0"></path><path d="m20.93,29.66c0,.22.14.39.34.47.22.08.47.02.59-.16.08-.11.16-.13.27-.08.02,0,.04,0,.06.02.22.07.24.13.1.32-.35.51-1.11.56-1.57.09-.34-.33-.43-.74-.27-1.19.16-.45.5-.69.97-.74.46-.05.91.31.99.77.02.12.02.23.03.35,0,.11-.05.15-.15.15-.41,0-.82,0-1.22,0-.04,0-.08,0-.12,0Zm.94-.39c0-.25-.2-.44-.46-.43-.28.01-.48.21-.46.43h.92Z" fill="#fff" stroke-width="0"></path><path d="m11.81,27.58c0-.3-.01-.59,0-.89.02-.4.05-.8.11-1.19.04-.32.24-.47.56-.53.17-.03.34-.11.5-.18.1-.04.21-.09.31,0,.1.1.13.31.05.41-.08.1-.18.19-.29.27-.23.18-.37.41-.4.7-.03.33-.04.66-.07.99-.02.21,0,.45-.18.61-.1.09-.23.15-.35.2-.13.05-.24-.06-.26-.22,0-.06,0-.11,0-.17,0,0,.02,0,.03,0Z" fill="#fff" stroke-width="0"></path><path d="m11.07,28.5c-.11.08-.24.18-.37.25-.2.12-.35.04-.35-.19,0-.33.02-.66.04-.99.01-.28.03-.55.05-.83.02-.26.01-.53.13-.77.1-.21.26-.33.47-.4.12-.04.21.01.24.14.01.06,0,.13,0,.2,0,.06.04.12.03.17-.01.15-.04.29-.05.44-.03.2-.05.39-.08.59-.02.17-.05.34-.06.51-.02.2-.03.41-.05.61,0,.05-.02.09-.02.13,0,.04,0,.07,0,.13Z" fill="#fff" stroke-width="0"></path><path d="m17.38,24.52s-.04.02-.04.03c0,.21-.02.42-.02.63,0,.17-.09.3-.22.39-.1.07-.2.12-.31.16-.2.07-.34-.03-.32-.24.03-.44.08-.87.13-1.31.03-.29.07-.57.1-.86.03-.21.11-.4.3-.52.09-.05.21-.06.31-.08.03,0,.08.02.08.04.02.11.09.2.06.32-.08.35-.09.7-.06,1.06,0,.05,0,.11-.02.15-.04.08-.04.15.02.21Z" fill="#fff" stroke-width="0"></path><path d="m25.37,29.51c0-.28,0-.56,0-.85,0-.18.03-.21.21-.21.06,0,.13,0,.19,0,.1,0,.15.05.15.14,0,.61,0,1.22,0,1.83,0,.1-.05.15-.15.15-.08,0-.17,0-.25,0-.11,0-.16-.04-.16-.16,0-.3,0-.6,0-.9Z" fill="#fff" stroke-width="0"></path><path d="m17.33,22.09c-.15,0-.24-.07-.26-.22-.03-.28.32-.61.6-.57.12.02.18.09.18.21,0,.16-.3.54-.46.57-.02,0-.05,0-.07,0Z" fill="#fff" stroke-width="0"></path><path d="m11.57,24.21c-.04.07-.06.15-.11.2-.13.11-.26.22-.41.3-.14.08-.29-.04-.28-.2.02-.3.39-.57.61-.58.1,0,.18.12.19.27Z" fill="#fff" stroke-width="0"></path><path d="m25.99,27.75c0,.19-.16.35-.35.35-.19,0-.35-.17-.34-.36,0-.19.16-.34.34-.34.19,0,.35.15.35.35Z" fill="#fff" stroke-width="0"></path><path d="m45.53,18.85c1.51,0,2.72.29,3.81.98,1.34.85,2.19,2.06,2.61,3.57.48,1.73.42,3.45-.33,5.1-.84,1.85-2.25,3.08-4.24,3.56-2.03.49-3.93.16-5.61-1.12-1.25-.95-2.01-2.23-2.35-3.75-.38-1.72-.22-3.4.58-4.99.89-1.76,2.35-2.8,4.27-3.21.49-.1.98-.15,1.26-.14Zm-3.8,6.74c0,.11.01.24.02.37.05.87.27,1.69.69,2.45,1.16,2.1,3.47,2.29,4.95,1.59.87-.41,1.45-1.1,1.83-1.97.47-1.04.61-2.13.46-3.26-.12-.92-.42-1.76-.98-2.5-.85-1.12-1.99-1.64-3.39-1.49-1.07.11-1.92.65-2.55,1.51-.72.97-1.01,2.09-1.03,3.3Z" fill="#fff" stroke-width="0"></path><path d="m53.49,33.83h2.21v.87h-3.65c0-.19.02-.38,0-.56-.03-.26.07-.44.26-.62.57-.51,1.12-1.05,1.58-1.66.21-.28.41-.58.5-.93.15-.53-.14-.96-.69-1.02-.48-.05-.92.11-1.32.36-.03.02-.06.04-.11.07-.02-.2-.04-.39-.06-.58,0-.05,0-.09-.01-.14-.02-.26-.05-.2.17-.29.58-.26,1.18-.36,1.82-.29.78.09,1.29.64,1.35,1.41.04.66-.21,1.21-.58,1.73-.38.55-.86,1.01-1.33,1.48-.05.05-.1.09-.15.13,0,0,.01.02.02.03Z" fill="#fff" stroke-width="0"></path><path d="m118.97,39.34h15.74c.36,0,.66-.29.66-.66v-6.67c0-.36-.3-.66-.66-.66h-7.24c-.36,0-.66-.29-.66-.66v-8.77c0-.36.3-.66.66-.66h5.29c.36,0,.66-.29.66-.66v-6.59c0-.36-.3-.66-.66-.66h-13.79c-.36,0-.66.29-.66.66v24.66c0,.36.3.66.66.66Z" fill="#fff" stroke-width="0"></path><path d="m136.98,38.7c0,.36.3.66.66.66h7.22c.36,0,.66-.29.66-.66V14.06c0-.36-.3-.7-.67-.7h-9.18c-.36,0-.66.29-.66.66v6.58c0,.36.3.66.66.66h.63c.36,0,.66.29.66.66v16.78Z" fill="#fff" stroke-width="0"></path></svg>